<?xml version="1.0" standalone="no"?>
<!DOCTYPE svg PUBLIC "-//W3C//DTD SVG 20010904//EN"
 "http://www.w3.org/TR/2001/REC-SVG-20010904/DTD/svg10.dtd">
<svg version="1.0" xmlns="http://www.w3.org/2000/svg"
 width="1000.000000pt" height="1000.000000pt" viewBox="0 0 1000.000000 1000.000000"
 preserveAspectRatio="xMidYMid meet">

<g transform="translate(0.000000,1000.000000) scale(0.100000,-0.100000)"
fill="#000000" stroke="none">
<path d="M3623 8909 c93 -405 120 -593 121 -839 0 -140 -4 -206 -17 -272 -38
-187 -134 -413 -263 -618 -55 -88 -169 -254 -194 -283 -4 -4 -61 5 -126 22
-132 33 -283 61 -329 61 -99 0 -170 -57 -200 -161 -14 -49 -18 -95 -18 -194 1
-152 21 -243 81 -369 l38 -79 -111 -167 c-60 -92 -115 -175 -121 -186 -10 -17
-15 -12 -44 46 -48 96 -134 222 -180 264 -49 44 -107 74 -119 60 -4 -5 -20
-61 -36 -124 -108 -454 -229 -798 -453 -1285 -170 -371 -206 -506 -205 -765 1
-252 51 -456 178 -715 111 -229 235 -397 454 -615 258 -258 581 -487 991 -703
724 -382 1630 -587 2413 -546 393 20 684 87 1025 235 303 132 899 461 1191
658 422 284 676 581 792 927 90 270 88 515 -7 758 -46 115 -121 235 -282 450
-179 238 -223 318 -297 536 -47 141 -53 151 -90 177 -22 15 -55 31 -72 34
l-33 7 0 -129 c-1 -140 -9 -146 -31 -24 -11 59 -13 191 -11 612 3 571 -3 686
-49 867 -47 187 -290 592 -514 859 -106 125 -323 337 -445 434 -392 310 -789
506 -1520 749 -452 150 -742 223 -1159 293 -113 19 -242 38 -285 42 l-79 7 6
-24z m403 -139 c350 -57 638 -124 994 -230 732 -219 1202 -441 1590 -753 132
-106 352 -332 448 -459 164 -219 364 -568 396 -693 48 -187 50 -229 51 -840 0
-512 2 -591 18 -670 29 -148 56 -234 107 -342 71 -149 102 -190 167 -220 31
-15 58 -22 63 -17 5 5 11 56 12 113 l3 103 49 -72 c28 -40 92 -127 143 -193
246 -316 323 -498 323 -759 0 -325 -146 -648 -420 -932 -232 -240 -447 -388
-1045 -721 -686 -383 -1066 -502 -1655 -522 -282 -9 -588 16 -910 73 -716 128
-1432 444 -1966 869 -395 313 -650 698 -750 1130 -25 107 -28 140 -28 300 -1
276 21 356 211 769 201 436 289 677 394 1078 24 93 47 168 50 168 12 0 77
-155 103 -244 14 -49 36 -100 48 -113 21 -23 95 -63 115 -63 6 0 38 51 73 113
34 61 98 167 142 235 l81 123 31 -38 c175 -214 400 -414 609 -542 156 -95 365
-186 522 -226 39 -10 71 -19 73 -20 1 -1 -5 -31 -14 -66 -20 -73 -23 -244 -6
-301 l10 -38 -41 -10 c-493 -124 -1041 -368 -1276 -568 -59 -51 -131 -137
-131 -157 0 -24 31 -45 65 -45 26 0 84 34 277 161 375 248 481 305 835 450
106 43 210 87 232 99 22 11 43 20 46 20 2 0 18 -29 34 -64 34 -75 79 -143 135
-204 l39 -42 -50 -108 c-86 -183 -252 -614 -317 -822 -121 -392 -173 -831
-106 -912 35 -43 46 -12 115 346 129 664 217 1003 377 1438 l10 27 61 -50
c134 -108 378 -205 569 -226 l72 -8 73 -430 c40 -236 109 -641 153 -900 92
-548 103 -602 130 -655 21 -42 54 -70 82 -70 31 0 22 96 -27 300 -25 102 -79
389 -120 639 -101 608 -152 840 -229 1045 l-24 64 91 7 c106 8 228 29 287 50
l40 14 75 -54 c42 -30 84 -57 95 -60 22 -7 70 -89 94 -162 20 -59 27 -67 56
-58 29 9 25 30 -20 97 -36 54 -47 78 -37 78 2 0 39 -9 82 -20 47 -12 111 -20
160 -20 l82 0 17 -97 c9 -54 35 -167 57 -252 21 -85 39 -170 39 -190 0 -52
-17 -105 -40 -126 -29 -26 -25 -35 18 -35 89 0 240 61 297 120 l26 28 -45 22
c-66 31 -130 108 -155 183 -19 58 -51 212 -66 319 -6 46 -5 48 22 54 15 4 57
20 92 35 35 16 65 28 66 27 0 -2 37 -57 81 -123 45 -66 111 -174 147 -241 71
-129 87 -149 130 -159 25 -7 27 -5 27 22 0 22 -23 59 -91 144 -49 63 -129 172
-176 244 l-86 129 28 21 c15 11 54 41 86 68 l58 48 68 -44 c219 -142 497 -239
895 -312 246 -45 537 -53 604 -17 24 13 36 43 24 62 -4 7 -92 21 -221 36 -485
54 -801 117 -1088 216 -110 38 -241 93 -241 101 0 2 24 40 54 84 29 44 61 100
70 124 16 40 24 47 99 84 107 51 225 166 280 272 174 334 40 742 -298 903
-178 85 -404 79 -584 -15 l-68 -36 -87 11 c-139 17 -314 -13 -438 -76 -47 -24
-78 -31 -78 -16 0 4 28 23 62 42 84 47 270 233 336 334 124 192 203 452 217
716 l5 95 -20 -125 c-47 -297 -143 -523 -300 -706 -108 -126 -265 -241 -382
-280 -46 -15 -51 -15 -126 10 -42 14 -95 29 -117 34 -47 9 -72 45 -85 119 -8
47 -8 47 -9 -23 l-1 -71 -152 0 c-84 0 -174 -5 -201 -10 -46 -10 -47 -10 -53
16 -56 254 -216 468 -521 697 -181 136 -471 293 -690 374 -35 12 -63 25 -63
29 0 4 47 77 104 163 170 257 272 479 311 680 46 234 24 590 -59 979 l-32 149
26 0 c14 0 107 -13 206 -30z m-1120 -1905 c385 -66 765 -207 1105 -409 379
-225 622 -481 704 -739 40 -125 32 -206 -29 -294 -89 -130 -264 -190 -479
-164 -502 61 -1024 389 -1379 865 -157 211 -241 422 -218 548 22 117 70 178
155 199 44 10 45 10 141 -6z m3833 -1150 c133 -42 249 -129 326 -245 116 -174
141 -386 70 -577 -69 -183 -245 -338 -440 -388 -86 -22 -224 -19 -315 6 -112
31 -185 74 -276 164 -88 87 -140 176 -169 290 -19 76 -19 222 0 304 22 91 88
211 154 280 171 177 415 240 650 166z m-1284 -487 c110 -28 237 -129 287 -229
70 -140 75 -276 13 -414 -85 -192 -306 -305 -511 -262 -225 48 -374 230 -374
458 0 308 283 524 585 447z"/>
<path d="M5997 7046 c-102 -34 -196 -105 -363 -271 -177 -175 -288 -320 -374
-486 -83 -161 -108 -233 -116 -331 -6 -78 1 -104 12 -42 23 139 168 403 319
584 76 91 280 291 355 347 75 57 178 103 244 110 49 5 57 3 80 -20 14 -14 26
-36 27 -49 0 -23 0 -23 10 2 17 42 0 120 -31 152 -35 35 -71 36 -163 4z"/>
<path d="M6665 5089 c-62 -36 -74 -111 -26 -160 69 -68 187 -5 166 89 -12 59
-92 99 -140 71z m105 -49 c31 -58 -14 -128 -74 -116 -39 8 -53 22 -61 57 -8
35 14 76 48 88 28 10 74 -5 87 -29z"/>
<path d="M5157 4730 c-27 -39 8 -89 53 -75 24 7 37 51 23 74 -16 25 -59 26
-76 1z"/>
<path d="M6690 8166 c0 -2 8 -10 18 -17 15 -13 16 -12 3 4 -13 16 -21 21 -21
13z"/>
<path d="M6735 8133 c6 -6 57 -48 114 -94 345 -275 665 -686 892 -1144 136
-275 170 -532 150 -1136 -6 -184 -8 -365 -4 -404 l6 -69 96 -121 c452 -568
579 -742 655 -900 100 -206 131 -346 130 -580 -1 -193 -19 -300 -80 -476 -138
-397 -408 -726 -849 -1034 -284 -198 -985 -586 -1321 -731 -267 -114 -571
-195 -869 -230 -286 -34 -784 -20 -1135 32 -387 57 -824 175 -1160 314 -149
61 -164 67 -125 44 79 -45 557 -234 594 -234 7 0 66 -16 130 -35 507 -151
1117 -226 1604 -197 216 13 412 38 554 72 115 27 319 91 412 130 41 16 80 30
88 30 25 0 388 181 583 290 775 434 1093 669 1328 985 29 39 63 81 75 95 97
112 223 412 263 631 22 117 25 372 5 479 -14 77 -67 257 -81 275 -5 6 -26 44
-47 85 -21 42 -65 116 -97 165 -75 115 -364 498 -545 721 -110 136 -105 106
-98 567 3 219 1 466 -4 548 -11 174 -48 378 -89 491 -42 114 -248 480 -339
603 -20 28 -57 77 -81 110 -146 198 -342 399 -570 584 -86 70 -210 159 -185
134z"/>
<path d="M2217 6632 c57 -77 215 -282 218 -282 5 0 -16 73 -27 94 -15 28 -125
170 -155 200 -14 14 -34 26 -44 26 -17 0 -16 -4 8 -38z"/>
</g>
</svg>
