<?xml version="1.0" standalone="no"?>
<!DOCTYPE svg PUBLIC "-//W3C//DTD SVG 20010904//EN"
 "http://www.w3.org/TR/2001/REC-SVG-20010904/DTD/svg10.dtd">
<svg version="1.0" xmlns="http://www.w3.org/2000/svg"
 width="861.000000pt" height="438.000000pt" viewBox="0 0 861.000000 438.000000"
 preserveAspectRatio="xMidYMid meet">

<g transform="translate(0.000000,438.000000) scale(0.100000,-0.100000)"
fill="#000000" stroke="none">
<path d="M4570 3796 c-57 -15 -133 -45 -115 -46 6 0 40 8 76 19 88 25 175 34
243 26 31 -4 55 -9 53 -11 -2 -2 -370 -109 -817 -238 -701 -201 -818 -232
-849 -225 -89 21 -292 2 -324 -30 -5 -5 24 -1 64 9 74 20 191 25 239 11 24 -7
24 -8 -15 -28 -52 -27 -73 -63 -57 -98 17 -37 118 -81 232 -101 113 -19 421
-15 508 6 46 12 59 11 105 -3 157 -50 354 -220 479 -413 84 -131 181 -370 213
-529 16 -80 39 -295 32 -302 -6 -6 -214 -51 -312 -68 -285 -48 -715 -73 -996
-56 l-184 10 -27 33 c-16 18 -28 37 -28 44 0 6 -6 17 -14 23 -8 7 -22 42 -32
79 -20 76 -31 96 -83 150 -76 79 -97 110 -141 217 -18 44 -54 123 -80 175 -73
146 -87 182 -85 210 1 17 -5 31 -16 39 -13 7 -19 8 -19 0 0 -5 -4 -8 -9 -5
-15 9 -88 -70 -116 -124 -14 -27 -25 -52 -24 -56 2 -18 -53 -52 -86 -52 -43 0
-92 -22 -124 -56 -14 -14 -32 -26 -40 -26 -9 0 -5 -6 11 -14 74 -39 259 -210
305 -284 10 -15 20 -29 23 -32 32 -29 140 -251 155 -319 4 -18 13 -31 22 -31
11 0 13 -5 8 -17 -9 -21 -9 -26 6 -123 6 -44 9 -130 5 -210 -6 -149 -6 -151
-41 -282 -19 -71 -22 -94 -12 -100 44 -28 273 -90 415 -113 103 -16 444 -22
556 -10 226 24 633 167 744 260 69 58 22 60 -101 5 -49 -21 -114 -44 -144 -51
-71 -14 -223 -4 -223 16 0 7 -13 16 -30 19 -16 3 -43 9 -60 12 -31 6 -39 19
-17 27 6 3 -1 6 -16 6 -16 1 -35 8 -43 16 -9 8 -24 15 -35 15 -11 0 -37 13
-57 29 -24 19 -58 34 -98 41 -46 9 -70 21 -105 51 -24 21 -55 44 -69 51 -49
26 -124 84 -183 143 l-60 60 389 6 c461 7 641 25 949 94 60 14 113 25 117 25
15 0 -15 -228 -44 -325 -69 -237 -195 -391 -388 -474 -53 -23 -65 -31 -40 -27
61 10 179 77 239 135 154 150 251 394 251 629 0 36 5 63 13 69 6 5 323 98 702
207 380 108 697 199 706 202 13 4 18 -10 27 -78 46 -323 -42 -566 -235 -655
-76 -35 -92 -47 -45 -34 151 44 255 165 297 348 17 73 20 265 5 333 -6 25 -12
55 -15 67 l-5 23 118 -7 c131 -7 187 0 196 23 4 12 2 12 -14 4 -20 -11 -202
-14 -262 -4 l-38 7 0 68 0 68 59 45 c88 68 196 190 223 252 20 45 29 56 63 68
22 8 72 26 110 41 73 28 78 22 10 -14 -46 -25 -29 -27 41 -6 28 8 61 26 74 40
14 15 46 38 72 52 27 15 48 29 48 33 0 4 10 6 23 4 12 -1 36 -3 52 -3 29 -2
29 -2 10 -17 -11 -9 -33 -23 -50 -30 l-30 -15 40 6 c56 9 93 29 143 76 l44 41
5 87 c5 96 -13 193 -48 262 -48 95 -146 169 -223 169 -33 0 -136 -27 -136 -36
0 -2 22 0 50 3 147 17 282 -155 281 -359 0 -43 -5 -86 -11 -98 -19 -36 -148
-88 -177 -72 -9 6 -14 38 -16 113 -3 93 -7 113 -34 171 -55 117 -149 198 -229
198 -33 0 -144 -27 -144 -35 0 -2 24 -1 54 2 98 10 180 -50 238 -173 34 -72
50 -161 42 -224 -6 -43 -9 -47 -45 -58 -21 -7 -65 -12 -96 -12 l-58 0 -2 60
c-5 120 -66 252 -146 313 -43 32 -45 27 -14 -28 13 -22 33 -72 46 -112 15 -47
29 -73 40 -76 30 -7 45 -147 16 -147 -11 0 -15 -11 -15 -37 0 -66 -29 -164
-67 -226 -39 -64 -123 -152 -195 -204 l-44 -31 14 96 c24 171 5 449 -43 612
-47 160 -134 315 -240 428 -70 75 -175 150 -234 167 -18 6 -20 9 -10 16 22 14
111 10 168 -7 59 -17 81 -13 29 6 -53 19 -152 29 -199 19 -39 -7 -78 1 -349
78 -168 47 -309 91 -315 96 -6 6 26 8 90 4 73 -4 93 -2 75 5 -21 9 -71 10
-220 7 -14 0 -74 2 -135 5 -78 4 -126 2 -165 -8z m626 -115 c192 -55 301 -90
289 -94 -123 -37 -1632 -468 -1666 -476 -224 -50 -586 -24 -707 51 -28 17 -33
25 -30 51 2 25 11 35 48 54 50 25 1689 500 1731 502 14 1 165 -39 335 -88z
m442 -143 c284 -140 472 -523 472 -962 0 -143 -16 -294 -34 -312 -9 -10 -1396
-414 -1419 -414 -4 0 -7 27 -7 61 0 168 -66 426 -159 619 -117 245 -334 472
-532 558 l-60 26 803 232 c442 127 814 232 828 233 13 0 62 -18 108 -41z
m1201 -237 c179 -92 243 -443 98 -543 l-32 -22 22 25 c46 51 68 152 53 248
-19 117 -79 221 -164 282 -45 33 -33 38 23 10z m-250 -97 c94 -61 159 -216
149 -354 -6 -74 -36 -142 -76 -168 l-24 -16 25 37 c43 63 56 154 36 249 -24
112 -77 197 -164 261 -37 28 -38 29 -12 23 16 -4 45 -18 66 -32z m-511 -1031
l-3 -68 -685 -197 c-377 -108 -695 -200 -708 -203 -22 -5 -23 -4 -20 61 l3 67
700 202 c385 112 704 203 708 204 4 1 7 -29 5 -66z m-1438 -417 l0 -64 -107
-26 c-221 -52 -456 -81 -783 -97 -256 -12 -576 -1 -590 20 -3 7 -8 35 -9 64
l-2 52 383 0 c244 0 427 5 503 13 152 17 397 57 495 81 115 29 110 31 110 -43z"/>
<path d="M7773 3639 c-48 -14 -40 -18 20 -12 35 4 64 0 88 -10 119 -50 211
-229 195 -380 -10 -100 -47 -162 -121 -200 -25 -14 -27 -16 -9 -17 31 0 90 49
118 100 34 63 41 138 21 235 -20 95 -43 142 -98 202 -66 72 -146 103 -214 82z"/>
<path d="M7511 3564 c-60 -18 -63 -25 -10 -18 69 9 125 -11 178 -64 84 -84
131 -220 117 -335 -6 -46 -14 -64 -41 -93 -19 -19 -32 -41 -29 -49 3 -8 -12
-23 -38 -39 -24 -14 -36 -26 -27 -26 39 0 109 34 154 75 l48 45 4 98 c7 156
-22 246 -111 340 -75 79 -144 98 -245 66z m189 -40 c50 -34 103 -112 130 -194
40 -118 17 -265 -50 -325 -22 -19 -21 -18 4 32 80 160 8 404 -149 505 l-30 20
28 -6 c16 -4 46 -18 67 -32z"/>
<path d="M7260 3490 c-8 -5 -25 -10 -37 -10 -12 0 -24 -4 -27 -9 -3 -5 15 -6
39 -3 154 17 298 -179 282 -386 -5 -65 -9 -79 -35 -106 -17 -17 -32 -40 -34
-51 -2 -11 -21 -30 -43 -43 l-40 -23 40 6 c53 9 104 36 141 77 39 42 55 131
42 240 -19 169 -147 318 -270 318 -24 0 -50 -5 -58 -10z m162 -45 c83 -55 140
-169 146 -295 5 -106 -9 -161 -54 -208 l-34 -37 26 52 c79 157 12 394 -141
498 -38 27 -39 27 -10 21 17 -4 47 -18 67 -31z"/>
<path d="M6955 3403 c-55 -20 -56 -24 -3 -17 114 16 219 -73 268 -226 18 -57
22 -86 18 -151 -5 -78 -6 -83 -42 -116 -30 -29 -39 -33 -51 -23 -13 10 -15 8
-15 -14 0 -14 5 -26 10 -26 6 0 10 5 10 10 0 6 7 10 15 10 33 0 6 -28 -55 -57
-33 -15 -11 -16 46 -2 49 13 159 102 151 124 -3 6 -1 35 5 64 13 71 -5 179
-42 258 -32 70 -103 147 -155 169 -42 17 -107 16 -160 -3z m153 -18 c105 -45
183 -187 185 -341 1 -68 -3 -89 -26 -135 -14 -30 -35 -59 -46 -66 -16 -10 -16
-6 7 34 37 66 43 185 14 280 -27 86 -83 169 -146 211 -52 35 -48 41 12 17z"/>
<path d="M1456 2585 c4 -8 8 -15 10 -15 2 0 4 7 4 15 0 8 -4 15 -10 15 -5 0
-7 -7 -4 -15z"/>
<path d="M1450 2536 c-187 -43 -385 -114 -405 -145 -4 -7 15 -1 41 12 71 36
222 82 349 107 61 12 124 25 140 30 51 14 -61 10 -125 -4z"/>
<path d="M1758 2424 c-17 -16 -7 -63 22 -102 112 -155 435 -287 508 -209 26
27 28 64 8 112 -22 51 -26 43 -10 -17 12 -46 11 -55 -2 -76 -15 -23 -21 -24
-88 -20 -88 6 -196 49 -295 118 -83 59 -123 108 -130 162 -4 22 -9 36 -13 32z"/>
<path d="M491 1594 c0 -11 3 -14 6 -6 3 7 2 16 -1 19 -3 4 -6 -2 -5 -13z"/>
<path d="M270 1396 c0 -25 5 -46 10 -46 6 0 10 18 10 39 0 22 -4 43 -10 46 -6
4 -10 -12 -10 -39z"/>
<path d="M268 1228 c-5 -124 2 -248 12 -248 6 0 10 66 10 165 0 171 -16 231
-22 83z"/>
<path d="M270 896 c0 -25 5 -46 10 -46 6 0 10 18 10 39 0 22 -4 43 -10 46 -6
4 -10 -12 -10 -39z"/>
<path d="M875 880 c-41 -16 -48 -35 -35 -89 27 -115 176 -265 343 -346 105
-50 181 -73 282 -81 39 -4 80 -13 92 -20 20 -12 22 -12 17 1 -5 12 3 15 37 15
51 0 65 7 71 35 3 14 7 10 12 -17 9 -44 17 -46 110 -22 172 43 401 162 470
244 24 29 27 50 7 50 -4 0 -40 -20 -81 -45 -108 -64 -149 -72 -252 -46 -46 11
-112 25 -148 31 -36 6 -73 13 -82 16 -16 5 -18 -2 -18 -48 0 -29 -5 -60 -10
-68 -8 -12 -10 -11 -10 7 0 19 -12 25 -87 48 -49 14 -119 38 -157 53 -65 25
-74 32 -121 99 -66 94 -75 101 -37 30 l30 -57 -36 29 c-21 16 -68 57 -107 91
-38 35 -88 71 -110 81 -42 19 -143 25 -180 9z"/>
<path d="M268 800 c-1 -5 -2 -80 0 -165 4 -211 22 -203 22 10 0 93 -4 165 -9
165 -5 0 -11 -4 -13 -10z"/>
<path d="M3928 803 c7 -3 16 -2 19 1 4 3 -2 6 -13 5 -11 0 -14 -3 -6 -6z"/>
<path d="M3188 793 c7 -3 16 -2 19 1 4 3 -2 6 -13 5 -11 0 -14 -3 -6 -6z"/>
<path d="M268 429 c-6 -19 4 -79 13 -79 12 0 12 77 0 84 -5 4 -11 1 -13 -5z"/>
<path d="M268 178 c-3 -143 -1 -178 13 -178 5 0 9 70 9 155 0 191 -18 209 -22
23z"/>
<path d="M1583 253 c20 -2 54 -2 75 0 20 2 3 4 -38 4 -41 0 -58 -2 -37 -4z"/>
</g>
</svg>
