<?xml version="1.0" encoding="UTF-8"?>
<svg version="1.1" xmlns="http://www.w3.org/2000/svg" width="1000" height="1000">
<path d="M0 0 C330 0 660 0 1000 0 C1000 330 1000 660 1000 1000 C670 1000 340 1000 0 1000 C0 670 0 340 0 0 Z " fill="#11B5E0" transform="translate(0,0)"/>
<path d="M0 0 C41.68273201 3.35620518 85.17757676 11.73925558 124.81591797 25.27612305 C127.47172395 26.1563449 130.14418919 26.97265738 132.8203125 27.7890625 C140.70709568 30.20232711 148.55737927 32.72460971 156.40429688 35.26391602 C158.89095732 36.06765775 161.3790631 36.86681913 163.8671875 37.66601562 C165.47144524 38.1846142 167.0756151 38.70348468 168.6796875 39.22265625 C169.41210663 39.45710953 170.14452576 39.69156281 170.8991394 39.93312073 C175.38991479 41.39372215 179.67849027 43.09591582 184 45 C186.16257576 45.80277434 188.32965409 46.59347636 190.5 47.375 C249.11570973 69.08292583 308.27217037 101.37384936 347.8046875 151.25 C350.05154621 154.06457035 352.39580788 156.77489015 354.75 159.5 C393.08975197 205.543257 406.84043851 250.25073627 406.23828125 309.1875 C406.22692139 310.54041138 406.22692139 310.54041138 406.21533203 311.9206543 C406.16392366 315.35388239 406.0659469 318.60792559 405.49560547 321.9987793 C404.78890618 326.27831346 404.83738557 330.50159489 404.83203125 334.83203125 C404.82870285 335.78204514 404.82537445 336.73205902 404.82194519 337.71086121 C404.8168927 339.72219359 404.81453635 341.73353432 404.81469727 343.74487305 C404.81253452 346.76430877 404.79442702 349.78336436 404.77539062 352.80273438 C404.74283964 364.39124286 405.39075704 375.5190374 407 387 C407.33 382.05 407.66 377.1 408 372 C414.56081133 372.10251268 418.21715136 373.05306466 423.05517578 377.51391602 C426.68086523 382.14866314 428.11994454 387.72822985 429.78933716 393.29083252 C430.88507012 396.91981921 432.07656634 400.516598 433.2734375 404.11328125 C433.50533279 404.81221497 433.73722809 405.51114868 433.97615051 406.23126221 C436.66726526 414.19589196 440.3121225 421.06226855 445 428 C445.39010254 428.58265625 445.78020508 429.1653125 446.18212891 429.765625 C450.62083128 436.34412872 455.44269408 442.59997963 460.375 448.8125 C462.25967624 451.20089152 464.13405505 453.59694666 466 456 C466.48758789 456.62680664 466.97517578 457.25361328 467.47753906 457.89941406 C487.8550055 484.43658371 496.8880467 513.06179972 493.765625 546.51074219 C493.17436224 550.76822304 492.17148368 554.86951014 491 559 C490.7215625 560.07507813 490.443125 561.15015625 490.15625 562.2578125 C484.03532602 584.15594569 471.41720627 604.12843873 456.109375 620.703125 C454.22100188 622.75935351 452.42019417 624.86286408 450.625 627 C441.41402577 637.48795021 430.16166109 645.733864 419 654 C418.34322266 654.49226074 417.68644531 654.98452148 417.00976562 655.49169922 C389.81900437 675.78854401 358.77326971 691.45404052 328.94091797 707.42529297 C326.98792952 708.47101565 325.03641644 709.51949863 323.08642578 710.57080078 C273.54867017 737.23212278 223.40472233 751.17452966 167.0625 751.3125 C166.03542938 751.31511841 165.00835876 751.31773682 163.95016479 751.32043457 C136.47330626 751.32787518 109.42864267 748.49155145 82.421875 743.44824219 C80.15936993 743.02949629 77.89418121 742.63844262 75.625 742.2578125 C67.11499111 740.800207 58.88646044 738.69505255 50.6015625 736.3046875 C47.6077812 735.44335879 44.60899463 734.63489013 41.5859375 733.8828125 C-26.70397041 716.87922871 -94.50686393 681.63449965 -146.14453125 633.6328125 C-148.66303899 631.31068635 -151.22307741 629.05461464 -153.8125 626.8125 C-157.21482584 623.80040508 -160.21970203 620.63380925 -163.14453125 617.16015625 C-164.45635567 615.63291645 -165.81301799 614.14365956 -167.19921875 612.68359375 C-183.88314887 595.08621174 -196.32258688 574.12623908 -206 552 C-206.47179687 550.9378125 -206.94359375 549.875625 -207.4296875 548.78125 C-211.54141986 538.8722304 -213.7604657 528.45693579 -216 518 C-216.25007812 516.89140625 -216.50015625 515.7828125 -216.7578125 514.640625 C-223.28160079 480.64341843 -213.4432992 446.49993496 -198.16796875 416.37109375 C-193.99728977 408.13081615 -190.24627293 399.74413461 -186.625 391.25 C-186.1424324 390.1216423 -186.1424324 390.1216423 -185.65011597 388.9704895 C-173.73690389 361.03665624 -164.48835687 332.25071728 -156.53808594 302.95800781 C-155.6807383 299.83825823 -154.77544085 296.73253647 -153.875 293.625 C-152.10089122 287.4516784 -150.50927904 281.24292695 -149 275 C-146.19614477 274.18977914 -144.58052542 273.76966586 -141.82421875 274.86328125 C-129.21323412 283.41661817 -121.54624877 297.53579117 -115 311 C-111.67766943 307.0466547 -108.98793372 302.89667699 -106.3125 298.5 C-103.75839557 294.32558596 -101.19315395 290.19706852 -98.3125 286.23828125 C-97.89186279 285.65820312 -97.47122559 285.078125 -97.0378418 284.48046875 C-95.87748599 282.90096071 -94.69901438 281.33480784 -93.51953125 279.76953125 C-91.77085078 277.15226704 -91.77085078 277.15226704 -92.1171875 274.4453125 C-93.04100004 271.88643353 -94.10020532 269.49834906 -95.3125 267.0625 C-99.98170623 256.97755748 -102.82005447 247.16185254 -102 236 C-100.2980684 239.07139285 -99.22857741 242.24909746 -98.14990234 245.58227539 C-87.76825049 277.17195557 -62.20494474 306.13871109 -36 326 C-35.0416626 326.73234863 -35.0416626 326.73234863 -34.06396484 327.47949219 C-23.22863155 335.71044267 -12.1120877 342.80349483 0 349 C1.04124023 349.53898926 1.04124023 349.53898926 2.10351562 350.08886719 C25.49819898 362.07339573 57.68831724 374.11318962 84.12744141 366.50830078 C96.31418481 362.51985612 103.37743083 356.70428195 109.875 345.875 C113.57741966 336.03905379 110.99359736 325.07418139 106.86865234 315.84912109 C101.41367007 304.2369694 94.7666788 294.35290048 86 285 C85.52159668 284.48453613 85.04319336 283.96907227 84.55029297 283.43798828 C69.24305959 267.09696648 50.28813701 255.12318833 31 244 C29.91332031 243.36707031 28.82664062 242.73414063 27.70703125 242.08203125 C-2.21296756 225.38329774 -53.4274165 200.79710421 -89 208 C-95.40214444 211.52460508 -97.65006156 215.48997839 -99.6875 222.296875 C-100.17007907 224.18697635 -100.59126435 226.09256695 -101 228 C-101.33 228 -101.66 228 -102 228 C-102.48664756 218.61851643 -102.88892692 209.56086474 -96.3515625 202.125 C-90.24844665 196.58155853 -84.71836014 195.62080732 -76.61132812 195.75097656 C-70.51770331 196.17116973 -64.68656356 197.48765091 -58.75 198.875 C-57.54859375 199.14441406 -56.3471875 199.41382813 -55.109375 199.69140625 C-51.73685114 200.44948453 -48.36844174 201.22402935 -45 202 C-42.00123827 202.67241859 -39.00080242 203.33673251 -36 204 C-18.33908539 181.09200206 -3.62806991 156.73499115 5.8125 129.3125 C6.10294189 128.48169922 6.39338379 127.65089844 6.69262695 126.79492188 C10.78175445 114.46113785 11.41063309 102.00765474 11.375 89.125 C11.37368576 87.95315155 11.37368576 87.95315155 11.37234497 86.75762939 C11.28431849 62.68954392 7.41831487 39.40395791 2.28686523 15.95068359 C2.13585861 15.25555664 1.98485199 14.56042969 1.82926941 13.84423828 C1.41785001 11.96058517 0.99874657 10.07861502 0.57910156 8.19677734 C0.06673526 5.36839437 -0.12002824 2.86247131 0 0 Z " fill="#FCCE4B" transform="translate(362,106)"/>
<path d="M0 0 C41.68273201 3.35620518 85.17757676 11.73925558 124.81591797 25.27612305 C127.47172395 26.1563449 130.14418919 26.97265738 132.8203125 27.7890625 C140.70709568 30.20232711 148.55737927 32.72460971 156.40429688 35.26391602 C158.89095732 36.06765775 161.3790631 36.86681913 163.8671875 37.66601562 C165.47144524 38.1846142 167.0756151 38.70348468 168.6796875 39.22265625 C169.41210663 39.45710953 170.14452576 39.69156281 170.8991394 39.93312073 C175.38991479 41.39372215 179.67849027 43.09591582 184 45 C186.16257576 45.80277434 188.32965409 46.59347636 190.5 47.375 C249.11570973 69.08292583 308.27217037 101.37384936 347.8046875 151.25 C350.05154621 154.06457035 352.39580788 156.77489015 354.75 159.5 C393.08975197 205.543257 406.84043851 250.25073627 406.23828125 309.1875 C406.22692139 310.54041138 406.22692139 310.54041138 406.21533203 311.9206543 C406.16392366 315.35388239 406.0659469 318.60792559 405.49560547 321.9987793 C404.78890618 326.27831346 404.83738557 330.50159489 404.83203125 334.83203125 C404.82870285 335.78204514 404.82537445 336.73205902 404.82194519 337.71086121 C404.8168927 339.72219359 404.81453635 341.73353432 404.81469727 343.74487305 C404.81253452 346.76430877 404.79442702 349.78336436 404.77539062 352.80273438 C404.74283964 364.39124286 405.39075704 375.5190374 407 387 C407.33 382.05 407.66 377.1 408 372 C414.56081133 372.10251268 418.21715136 373.05306466 423.05517578 377.51391602 C426.68086523 382.14866314 428.11994454 387.72822985 429.78933716 393.29083252 C430.88507012 396.91981921 432.07656634 400.516598 433.2734375 404.11328125 C433.50533279 404.81221497 433.73722809 405.51114868 433.97615051 406.23126221 C436.66726526 414.19589196 440.3121225 421.06226855 445 428 C445.39010254 428.58265625 445.78020508 429.1653125 446.18212891 429.765625 C450.62083128 436.34412872 455.44269408 442.59997963 460.375 448.8125 C462.25967624 451.20089152 464.13405505 453.59694666 466 456 C466.48758789 456.62680664 466.97517578 457.25361328 467.47753906 457.89941406 C487.8550055 484.43658371 496.8880467 513.06179972 493.765625 546.51074219 C493.17436224 550.76822304 492.17148368 554.86951014 491 559 C490.7215625 560.07507813 490.443125 561.15015625 490.15625 562.2578125 C484.03532602 584.15594569 471.41720627 604.12843873 456.109375 620.703125 C454.22100188 622.75935351 452.42019417 624.86286408 450.625 627 C441.41402577 637.48795021 430.16166109 645.733864 419 654 C418.34322266 654.49226074 417.68644531 654.98452148 417.00976562 655.49169922 C389.81900437 675.78854401 358.77326971 691.45404052 328.94091797 707.42529297 C326.98792952 708.47101565 325.03641644 709.51949863 323.08642578 710.57080078 C273.54867017 737.23212278 223.40472233 751.17452966 167.0625 751.3125 C166.03542938 751.31511841 165.00835876 751.31773682 163.95016479 751.32043457 C136.47330626 751.32787518 109.42864267 748.49155145 82.421875 743.44824219 C80.15936993 743.02949629 77.89418121 742.63844262 75.625 742.2578125 C67.11499111 740.800207 58.88646044 738.69505255 50.6015625 736.3046875 C47.6077812 735.44335879 44.60899463 734.63489013 41.5859375 733.8828125 C-26.70397041 716.87922871 -94.50686393 681.63449965 -146.14453125 633.6328125 C-148.66303899 631.31068635 -151.22307741 629.05461464 -153.8125 626.8125 C-157.21482584 623.80040508 -160.21970203 620.63380925 -163.14453125 617.16015625 C-164.45635567 615.63291645 -165.81301799 614.14365956 -167.19921875 612.68359375 C-183.88314887 595.08621174 -196.32258688 574.12623908 -206 552 C-206.47179687 550.9378125 -206.94359375 549.875625 -207.4296875 548.78125 C-211.54141986 538.8722304 -213.7604657 528.45693579 -216 518 C-216.25007812 516.89140625 -216.50015625 515.7828125 -216.7578125 514.640625 C-223.28160079 480.64341843 -213.4432992 446.49993496 -198.16796875 416.37109375 C-193.99728977 408.13081615 -190.24627293 399.74413461 -186.625 391.25 C-186.1424324 390.1216423 -186.1424324 390.1216423 -185.65011597 388.9704895 C-173.73690389 361.03665624 -164.48835687 332.25071728 -156.53808594 302.95800781 C-155.6807383 299.83825823 -154.77544085 296.73253647 -153.875 293.625 C-152.10089122 287.4516784 -150.50927904 281.24292695 -149 275 C-146.19614477 274.18977914 -144.58052542 273.76966586 -141.82421875 274.86328125 C-129.21323412 283.41661817 -121.54624877 297.53579117 -115 311 C-111.67766943 307.0466547 -108.98793372 302.89667699 -106.3125 298.5 C-103.75839557 294.32558596 -101.19315395 290.19706852 -98.3125 286.23828125 C-97.89186279 285.65820312 -97.47122559 285.078125 -97.0378418 284.48046875 C-95.87748599 282.90096071 -94.69901438 281.33480784 -93.51953125 279.76953125 C-91.77085078 277.15226704 -91.77085078 277.15226704 -92.1171875 274.4453125 C-93.04100004 271.88643353 -94.10020532 269.49834906 -95.3125 267.0625 C-99.98170623 256.97755748 -102.82005447 247.16185254 -102 236 C-100.2980684 239.07139285 -99.22857741 242.24909746 -98.14990234 245.58227539 C-87.76825049 277.17195557 -62.20494474 306.13871109 -36 326 C-35.0416626 326.73234863 -35.0416626 326.73234863 -34.06396484 327.47949219 C-23.22863155 335.71044267 -12.1120877 342.80349483 0 349 C1.04124023 349.53898926 1.04124023 349.53898926 2.10351562 350.08886719 C25.49819898 362.07339573 57.68831724 374.11318962 84.12744141 366.50830078 C96.31418481 362.51985612 103.37743083 356.70428195 109.875 345.875 C113.57741966 336.03905379 110.99359736 325.07418139 106.86865234 315.84912109 C101.41367007 304.2369694 94.7666788 294.35290048 86 285 C85.52159668 284.48453613 85.04319336 283.96907227 84.55029297 283.43798828 C69.24305959 267.09696648 50.28813701 255.12318833 31 244 C29.91332031 243.36707031 28.82664062 242.73414063 27.70703125 242.08203125 C-2.21296756 225.38329774 -53.4274165 200.79710421 -89 208 C-95.40214444 211.52460508 -97.65006156 215.48997839 -99.6875 222.296875 C-100.17007907 224.18697635 -100.59126435 226.09256695 -101 228 C-101.33 228 -101.66 228 -102 228 C-102.48664756 218.61851643 -102.88892692 209.56086474 -96.3515625 202.125 C-90.24844665 196.58155853 -84.71836014 195.62080732 -76.61132812 195.75097656 C-70.51770331 196.17116973 -64.68656356 197.48765091 -58.75 198.875 C-57.54859375 199.14441406 -56.3471875 199.41382813 -55.109375 199.69140625 C-51.73685114 200.44948453 -48.36844174 201.22402935 -45 202 C-42.00123827 202.67241859 -39.00080242 203.33673251 -36 204 C-18.33908539 181.09200206 -3.62806991 156.73499115 5.8125 129.3125 C6.10294189 128.48169922 6.39338379 127.65089844 6.69262695 126.79492188 C10.78175445 114.46113785 11.41063309 102.00765474 11.375 89.125 C11.37368576 87.95315155 11.37368576 87.95315155 11.37234497 86.75762939 C11.28431849 62.68954392 7.41831487 39.40395791 2.28686523 15.95068359 C2.13585861 15.25555664 1.98485199 14.56042969 1.82926941 13.84423828 C1.41785001 11.96058517 0.99874657 10.07861502 0.57910156 8.19677734 C0.06673526 5.36839437 -0.12002824 2.86247131 0 0 Z M18 14 C18.13575439 14.64211426 18.27150879 15.28422852 18.41137695 15.94580078 C21.37339599 30.0627108 23.88440765 44.12195816 25.63549805 58.43969727 C25.87661158 60.13330583 26.16925733 61.82044459 26.51489258 63.49584961 C28.48144113 73.21812194 28.33686209 82.96683065 28.31567383 92.84448242 C28.31251049 95.92727948 28.3360502 99.00911758 28.36132812 102.09179688 C28.39464369 112.54070721 28.01567319 121.93573881 25 132 C24.71898437 133.26972656 24.43796875 134.53945312 24.1484375 135.84765625 C18.31175495 160.10821049 4.47768684 182.21211417 -9.83203125 202.35107422 C-13.45046395 206.80760989 -13.45046395 206.80760989 -15 212 C-13.94425781 212.43699219 -13.94425781 212.43699219 -12.8671875 212.8828125 C14.26298157 224.14572864 14.26298157 224.14572864 27 231 C27.66676758 231.35803711 28.33353516 231.71607422 29.02050781 232.08496094 C61.73126983 249.78346334 96.08364293 274.74406733 109.1015625 311.07421875 C109.5738362 312.66993142 110.02270479 314.27311829 110.4296875 315.88671875 C111.09422749 318.34915804 112.01954042 320.64772093 113 323 C113.96035156 322.9278125 114.92070312 322.855625 115.91015625 322.78125 C128.2781484 321.92093461 140.60649997 321.89320198 153 322 C153.33 319.69 153.66 317.38 154 315 C154.18433594 315.54269531 154.36867188 316.08539063 154.55859375 316.64453125 C156.32734373 321.03810073 156.32734373 321.03810073 159.8125 324.05859375 C162.18642781 324.83099306 164.57419113 325.41022303 167 326 C170.26443581 327.10525034 173.52678158 328.21653298 176.7890625 329.328125 C183.40369033 330.71220771 188.71351583 328.60171516 194.5625 325.625 C195.59697266 325.10196289 195.59697266 325.10196289 196.65234375 324.56835938 C204.15935514 320.61549165 210.62903622 315.56464876 217 310 C217.74636719 309.35546875 218.49273438 308.7109375 219.26171875 308.046875 C240.93839449 287.8211735 251.06322464 257.86147225 255.1875 229.3125 C255.36474609 228.15427734 255.54199219 226.99605469 255.72460938 225.80273438 C257.80874805 213.18575166 257.80874805 213.18575166 255 201 C251.28750336 197.59620111 248.5146404 197.488343 243.64453125 197.65234375 C239.280612 198.22603476 235.82495784 199.8903583 232 202 C231.20851563 202.42410156 230.41703125 202.84820312 229.6015625 203.28515625 C218.53171584 209.55341327 209.38226863 218.26350659 200.46557617 227.21875 C198.94374027 228.74374677 197.40901789 230.25488202 195.87304688 231.765625 C186.65096682 240.92810762 178.65065592 250.96550343 171.5625 261.875 C170.89661865 262.89907959 170.89661865 262.89907959 170.21728516 263.94384766 C163.79943985 274.13636679 157.81564185 285.55307446 154 297 C152.9049423 279.844096 165.98235218 259.21877588 176 246 C176.40154297 245.46149414 176.80308594 244.92298828 177.21679688 244.36816406 C192.99728574 223.28400714 217.26859676 191.78553447 244.96484375 187.7109375 C248.99737726 187.42558131 250.74016605 187.79544987 253.9375 190.3125 C262.52444561 201.50155034 256.48521217 226.48059117 254.9140625 239.3984375 C251.00377656 268.94938889 239.78442627 295.47437576 219 317 C218.36964844 317.68191406 217.73929688 318.36382812 217.08984375 319.06640625 C210.769167 325.74570295 203.03917217 330.63088469 195 335 C195 335.66 195 336.32 195 337 C199.16034224 336.66267495 202.30750282 335.44125046 206 333.625 C215.29520135 329.23136658 226.68436356 326.83201818 237 326.875 C237.76183594 326.87242187 238.52367187 326.86984375 239.30859375 326.8671875 C242 327 242 327 245.34765625 327.5078125 C255.44529257 328.84566968 260.68366379 326.75556588 269.375 321.94921875 C280.26394272 315.93296633 296.23953625 316.46657403 308.1875 319 C320.43322227 322.67543418 331.14356651 328.76424068 340 338 C340.62003906 338.5775 341.24007812 339.155 341.87890625 339.75 C352.6058885 350.50097997 357.05830887 366.40132369 357.375 381.125 C357.32864323 399.35530514 350.78615911 416.4042405 337.82421875 429.375 C332.11126351 434.68496669 326.75552186 438.41633 319.375 440.9375 C312.49321427 443.83560413 310.70345381 449.56929389 307.859375 456.015625 C305.66437125 460.9508882 302.57689794 464.97598982 299 469 C302.3352189 475.67043779 319.766531 479.36982195 326.67578125 481.70654297 C367.68924384 495.02072814 411.15628186 500.6562749 454 504 C454 505.98 454 507.96 454 510 C450.33332018 512.34658187 446.79860174 512.28974354 442.5859375 512.265625 C441.86367981 512.26853546 441.14142212 512.27144592 440.39727783 512.27444458 C438.05630509 512.27892992 435.71591462 512.26639672 433.375 512.25 C432.57568054 512.24623352 431.77636108 512.24246704 430.95281982 512.23858643 C419.52677201 512.17510679 408.26951317 512.0548845 397 510 C395.44466553 509.71745361 395.44466553 509.71745361 393.85791016 509.42919922 C360.27939344 503.16577602 324.91487506 494.76099691 297 474 C293.5718511 475.53155726 290.89928575 477.56415175 288 479.9375 C285.03955451 482.35188771 282.07336972 484.73054412 279 487 C280.50718675 491.28105174 282.7214271 494.88935726 285.25 498.625 C285.68038574 499.26526123 286.11077148 499.90552246 286.55419922 500.56518555 C294.35050424 512.04345912 302.47094528 523.46911265 311.64453125 533.89453125 C313.35377198 536.54951901 313.65841073 538.89020679 314 542 C308.4601374 540.05374132 306.1001252 538.5817773 303.125 533.3125 C302.79387207 532.74144531 302.46274414 532.17039062 302.12158203 531.58203125 C301.05742451 529.73357419 300.02477368 527.8705497 299 526 C297.62823589 523.49819526 296.25479473 520.99738743 294.875 518.5 C294.51946045 517.85393799 294.1639209 517.20787598 293.79760742 516.54223633 C288.44795709 507.00272982 282.16068666 498.02707154 276 489 C271.65328707 490.41367259 267.3864361 491.97260641 263.125 493.625 C261.97257812 494.07101562 260.82015625 494.51703125 259.6328125 494.9765625 C258.76398438 495.31429688 257.89515625 495.65203125 257 496 C259.56744961 525.25572306 259.56744961 525.25572306 275 549 C278.49865579 551.45283264 279.6027524 552 284 552 C277.60383242 560.52822343 267.43632404 565.23113152 257 567 C254.00406329 567.39631289 251.01037258 567.73519871 248 568 C248.34933594 567.52949219 248.69867187 567.05898438 249.05859375 566.57421875 C249.51363281 565.95160156 249.96867187 565.32898438 250.4375 564.6875 C250.88996094 564.07261719 251.34242188 563.45773437 251.80859375 562.82421875 C255.25643215 557.54506946 254.55139106 551.02241573 254 545 C253.23464738 541.53682277 252.14950425 538.18254309 251.06665039 534.80786133 C248.52765274 526.81122183 246.99907414 518.66339665 245.45947266 510.42626953 C244.67378723 506.27741632 243.83566574 502.13902892 243 498 C242.00742187 497.96261719 241.01484375 497.92523437 239.9921875 497.88671875 C231.66625446 497.50634617 223.9154641 496.57460529 215.79296875 494.62109375 C212.98878823 493.89146249 212.98878823 493.89146249 210 494 C211.22759787 498.57559208 213.03743199 501.67036424 215.9765625 505.2890625 C217 507 217 507 217 511 C215.68 511 214.36 511 213 511 C212.69707031 510.154375 212.39414062 509.30875 212.08203125 508.4375 C207.62262831 496.36280895 204.44609797 490.24288717 193.15625 483.859375 C190 482 190 482 187.578125 479.66796875 C185.00972568 477.6227008 185.00972568 477.6227008 181.453125 478.37890625 C180.04670562 478.75381583 178.64583238 479.14991712 177.25 479.5625 C169.34173335 481.62903239 161.49507407 482.83357182 153.375 483.75 C152.25383789 483.87705322 151.13267578 484.00410645 149.97753906 484.13500977 C147.31906919 484.43064781 144.66009761 484.71944536 142 485 C142.24645264 485.73299316 142.49290527 486.46598633 142.74682617 487.22119141 C153.18897148 518.4672094 159.56111094 550.38587756 164.81640625 582.875 C164.93007727 583.57745535 165.04374828 584.2799107 165.16086388 585.00365257 C166.0845614 590.72412241 166.99769503 596.44626876 167.90722656 602.16900635 C171.21901764 623.00344889 174.72099704 643.71249794 180.10873413 664.13201904 C182.40385304 672.83081789 183.83535331 680.95940011 184 690 C180.31154224 688.98748218 177.90251645 688.25353077 175.62841797 685.0949707 C171.99473993 677.95120408 170.54661411 670.92776145 169.3125 663.0625 C169.07240446 661.61390972 168.83063292 660.16559648 168.58740234 658.7175293 C168.03260965 655.40083099 167.48715808 652.08274783 166.94677734 648.76367188 C165.88541552 642.26980027 164.78123931 635.78336324 163.67578125 629.296875 C161.94900263 619.15867945 160.22839036 609.01947915 158.515625 598.87890625 C155.99385532 583.95339458 153.45945991 569.03005398 150.91210938 554.10888672 C149.38122317 545.13801042 147.85756875 536.16606061 146.35531616 527.19033813 C145.62423802 522.82452438 144.88967292 518.45930039 144.15484619 514.09411621 C143.80524327 512.01131887 143.45734676 509.92823429 143.11126709 507.84484863 C142.63318153 504.96743741 142.14924045 502.09106628 141.6640625 499.21484375 C141.52482361 498.36713913 141.38558472 497.51943451 141.24212646 496.64604187 C140.49725585 492.26751527 139.54660234 488.18425468 138 484 C136.741875 483.84144531 135.48375 483.68289063 134.1875 483.51953125 C110.25761456 480.33405185 90.25822818 472.67553365 71 458 C70.01 457.34 69.02 456.68 68 456 C66.65499406 459.47475521 65.32661263 462.95568554 64 466.4375 C63.63777344 467.37271484 63.27554687 468.30792969 62.90234375 469.27148438 C55.36370241 489.14027638 49.56780012 509.50487794 44.5 530.125 C44.22308319 531.2411972 43.94616638 532.35739441 43.66085815 533.50741577 C38.70710405 553.49994098 34.32163132 573.56717616 30.42645264 593.79052734 C29.85100282 596.77196193 29.2678877 599.75187961 28.68510437 602.73188782 C27.52027339 608.6900896 26.36648598 614.65025522 25.2265625 620.61328125 C24.18086281 626.08165639 23.10402579 631.54311442 22 637 C20.68 637 19.36 637 18 637 C12.0204411 615.44023584 17.6161451 590.26710657 23 569 C23.21527344 568.12166504 23.43054688 567.24333008 23.65234375 566.33837891 C27.71237777 549.78571196 32.50428441 533.53082235 38.91503906 517.72631836 C40.12493512 514.68605975 41.27133859 511.62617724 42.41015625 508.55859375 C56.00188603 472.00903835 56.00188603 472.00903835 63.875 457.55859375 C65.16281026 455.13972955 65.16281026 455.13972955 64.91015625 452.8671875 C63.7565113 450.50048241 62.29472282 448.99312628 60.4375 447.125 C53.68206725 439.79851448 49.38233599 430.88602898 45 422 C41.13297541 423.25015846 37.37879732 424.62149674 33.640625 426.21484375 C32.62081543 426.64780762 31.60100586 427.08077148 30.55029297 427.52685547 C29.46119629 427.99236816 28.37209961 428.45788086 27.25 428.9375 C20.30026544 431.90505525 13.35232989 434.8692831 6.3515625 437.71484375 C-19.8242036 448.41569049 -43.35545621 462.53756546 -66.8125 478.1875 C-67.69462158 478.77539307 -68.57674316 479.36328613 -69.4855957 479.96899414 C-73.40455548 482.58445066 -77.31332422 485.21098283 -81.19140625 487.88671875 C-82.41903508 488.71649473 -83.64688184 489.54594843 -84.875 490.375 C-85.90367187 491.08398438 -86.93234375 491.79296875 -87.9921875 492.5234375 C-91.60045582 494.29476922 -94.02781826 494.4307185 -98 494 C-98.66 493.34 -99.32 492.68 -100 492 C-99.65075843 485.13158252 -93.76292878 480.41338297 -89 476 C-52.47717304 444.43884858 -1.54695006 429.71402594 44 417 C43.855625 416.16597656 43.71125 415.33195312 43.5625 414.47265625 C41.65675022 402.91904818 42.01807136 393.52990605 44 382 C44.33370653 380.00006224 44.66715294 378.00008098 45 376 C44.16359985 375.77449463 44.16359985 375.77449463 43.31030273 375.54443359 C8.87725758 366.18543642 -19.55895178 350.61542481 -46.52197266 327.27832031 C-47.86760772 326.1145038 -49.22052834 324.95912454 -50.57421875 323.8046875 C-54.73376009 320.20304729 -58.48494886 316.48693111 -62.03515625 312.28515625 C-65.02034975 308.81331093 -68.14824347 305.47393963 -71.26904297 302.12402344 C-73.39549392 299.82470871 -75.25755828 297.61366258 -77 295 C-80.33730989 296.39129019 -81.86260447 297.80779666 -83.8125 300.83203125 C-84.32522461 301.62109863 -84.83794922 302.41016602 -85.36621094 303.22314453 C-85.90536133 304.07763184 -86.44451172 304.93211914 -87 305.8125 C-87.56235352 306.69019043 -88.12470703 307.56788086 -88.70410156 308.47216797 C-95.18548917 318.69365278 -101.58322467 329.16644935 -107 340 C-111.01365563 340.30067455 -112.95439898 339.7805953 -116.125 337.3125 C-116.78757812 336.81363281 -117.45015625 336.31476563 -118.1328125 335.80078125 C-122.46805315 331.6197228 -123.81113869 326.67584701 -125.3125 321 C-127.46674079 313.23039965 -130.352279 306.20769613 -134 299 C-134.66 299 -135.32 299 -136 299 C-136.12528076 299.54188965 -136.25056152 300.0837793 -136.37963867 300.64208984 C-143.42194014 330.97668364 -152.10913913 361.14717115 -164.5625 389.75 C-164.94857422 390.64332031 -165.33464844 391.53664063 -165.73242188 392.45703125 C-166.48320478 394.19393617 -167.23527217 395.93028656 -167.98876953 397.66601562 C-168.84140012 399.63394138 -169.68536725 401.60561739 -170.52734375 403.578125 C-174.26038681 412.25225157 -178.2546959 420.77583688 -182.37695312 429.27148438 C-184.86393888 434.44608031 -187.02152008 439.61253572 -189 445 C-189.77491592 446.61232507 -190.56522154 448.21739948 -191.375 449.8125 C-198.41731761 465.02817411 -200.23035848 481.31560335 -200.25 497.875 C-200.25167175 498.61477081 -200.25334351 499.35454163 -200.25506592 500.11672974 C-200.25655068 511.05750898 -199.58377751 521.33232452 -197 532 C-196.66083679 533.85310913 -196.32676071 535.70716376 -196 537.5625 C-195.3405585 541.19629741 -194.10573251 544.49247679 -192.78515625 547.92749023 C-192.07715 549.79635376 -191.42560288 551.68637103 -190.78125 553.578125 C-185.48279725 568.7627152 -177.77042968 583.20420885 -168 596 C-167.51273438 596.66515625 -167.02546875 597.3303125 -166.5234375 598.015625 C-165.04010597 600.03041757 -163.5276369 602.01860957 -162 604 C-161.41734375 604.75796875 -160.8346875 605.5159375 -160.234375 606.296875 C-153.21727248 615.2536644 -145.73473773 623.99583708 -136.9921875 631.31640625 C-134.78095823 633.18511177 -132.68141299 635.15234194 -130.5625 637.125 C-118.94738827 647.58216348 -106.12936134 656.5657409 -93 665 C-92.23864746 665.49419434 -91.47729492 665.98838867 -90.69287109 666.49755859 C-82.39042051 671.8818954 -74.16120434 677.20789348 -65.203125 681.44921875 C-61.82197967 683.08618789 -58.52247006 684.84208915 -55.21289062 686.61791992 C-47.13907956 690.94374752 -39.01326446 694.90850705 -30.578125 698.4765625 C-27.43264802 699.81579397 -24.34173623 701.22996721 -21.25 702.6875 C-16.60756281 704.81673811 -11.88708619 706.46925667 -7.01953125 708.0078125 C-4.83267255 708.7263922 -2.66774358 709.51286639 -0.51953125 710.33984375 C5.60023625 712.65766314 11.87374012 714.51131447 18.125 716.4375 C19.96964844 717.01081055 19.96964844 717.01081055 21.8515625 717.59570312 C49.34042578 726.09934833 76.47182088 731.33523206 104.98876953 734.75720215 C106.74840054 734.96962665 108.50709992 735.18973955 110.265625 735.41113281 C138.03064745 738.81464903 167.24066078 738.34171367 195.0625 735.6875 C196.30128906 735.56995361 197.54007813 735.45240723 198.81640625 735.33129883 C206.71634773 734.47652778 214.2945753 732.91186312 222 731 C223.85991624 730.56961535 225.72056146 730.14236493 227.58203125 729.71875 C229.32561508 729.31290469 231.06910617 728.90666071 232.8125 728.5 C234.12637695 728.20029297 234.12637695 728.20029297 235.46679688 727.89453125 C240.19609162 726.78549574 244.69495031 725.47638096 249.21508789 723.69628906 C251.71122154 722.72255453 254.25840419 721.93230861 256.8125 721.125 C261.7512748 719.49532872 266.43583979 717.56298473 271.13671875 715.34375 C273.37211777 714.29466779 275.61377119 713.30110907 277.87890625 712.3203125 C284.79060848 709.2599392 291.50462298 705.78178887 298.25 702.375 C300.92069712 701.02629159 303.59274599 699.68031566 306.265625 698.3359375 C307.43899414 697.74345215 308.61236328 697.1509668 309.82128906 696.54052734 C312.51683941 695.23415847 315.20225969 694.0650862 318 693 C318 692.34 318 691.68 318 691 C318.84433594 690.74992188 319.68867187 690.49984375 320.55859375 690.2421875 C324.304107 688.89023152 327.63194902 687.11354778 331.0625 685.125 C332.09189697 684.5367041 332.09189697 684.5367041 333.14208984 683.93652344 C334.63877079 683.08061214 336.13416537 682.22244839 337.62841797 681.36230469 C340.0613185 679.96477689 342.50050894 678.5788209 344.94140625 677.1953125 C376.4670212 659.30320645 406.49123968 640.94284199 433 616 C433.72058594 615.33355469 434.44117188 614.66710937 435.18359375 613.98046875 C450.53324979 599.31027434 463.15734796 579.14196569 469.921875 559.1640625 C471 556 471 556 472.0078125 553.671875 C476.43993666 541.73654853 477.71354063 528.6153983 477 516 C476.95617187 514.88109375 476.91234375 513.7621875 476.8671875 512.609375 C476.27079055 501.66678746 473.83007129 491.81696308 469 482 C468.54109375 480.98679687 468.0821875 479.97359375 467.609375 478.9296875 C460.81740859 464.45554549 450.97086192 452.11624305 441.10058594 439.63037109 C436.7433814 434.07719071 432.74311526 428.35691277 428.93115234 422.41748047 C427.97498581 420.93134089 426.99068057 419.46335823 426 418 C425.67 418 425.34 418 425 418 C425 425.26 425 432.52 425 440 C414.85063885 436.61687962 410.35999537 433.70108324 405.5 424.6875 C405.11763184 423.99180908 404.73526367 423.29611816 404.34130859 422.5793457 C400.45874171 415.31605695 397.58271273 407.80664624 395 400 C394.69449219 399.10539062 394.38898437 398.21078125 394.07421875 397.2890625 C389.2077532 381.46681041 387.7887519 363.43377031 387.91821289 346.94897461 C387.92127945 346.0106781 387.92434601 345.07238159 387.92750549 344.10565186 C387.93460301 342.0880082 387.94396179 340.07037144 387.95540047 338.05274773 C387.97298761 334.84184686 387.98315295 331.63099712 387.99131775 328.4200592 C388.01558962 319.29699881 388.05106314 310.17400723 388.09594727 301.05102539 C388.1229902 295.4491833 388.13986261 289.84738081 388.15081596 284.24548531 C388.15695374 282.13074851 388.16686556 280.01601867 388.18089485 277.9013195 C388.28592186 261.92307509 388.37513876 245.45311071 383.5 230.0625 C383.24645752 229.24241455 382.99291504 228.4223291 382.73168945 227.57739258 C379.63612122 218.13360742 374.97529446 209.56729767 370 201 C369.59813477 200.30471191 369.19626953 199.60942383 368.78222656 198.89306641 C366.25680378 194.5513863 363.64575217 190.26928191 361 186 C360.195625 184.66195312 360.195625 184.66195312 359.375 183.296875 C348.00233975 164.7594388 334.07414969 147.99427236 318.8125 132.5625 C318.16418213 131.90475586 317.51586426 131.24701172 316.84790039 130.56933594 C316.24453857 129.97024414 315.64117676 129.37115234 315.01953125 128.75390625 C314.21672729 127.95448608 314.21672729 127.95448608 313.39770508 127.13891602 C312.04208782 125.78943733 312.04208782 125.78943733 310 126 C310 125.34 310 124.68 310 124 C306.53002835 120.77341314 302.72412731 117.92729576 299 115 C297.97777344 114.18660156 296.95554687 113.37320313 295.90234375 112.53515625 C275.0051607 96.053193 251.89409731 83.5702897 228 72 C227.2898877 71.65533691 226.57977539 71.31067383 225.84814453 70.95556641 C219.62190893 67.95186566 213.37748237 65.27301822 206.828125 63.0546875 C204.56549391 62.21088861 202.46804022 61.28402364 200.2890625 60.2578125 C192.80503161 56.89310401 184.91449729 54.54671758 177.125 52 C173.96016612 50.96066676 170.79627774 49.91849092 167.6328125 48.875 C166.87190308 48.62468018 166.11099365 48.37436035 165.32702637 48.11645508 C161.20209415 46.75298659 157.11048406 45.33026594 153.0390625 43.8125 C147.85210253 41.89499866 142.59449187 40.40970655 137.25 39 C136.37601562 38.76539063 135.50203125 38.53078125 134.6015625 38.2890625 C132.75286323 37.79358978 130.90337991 37.3010355 129.05322266 36.81103516 C126.8952528 36.23780824 124.73881639 35.65879369 122.58349609 35.07568359 C112.79989843 32.43678107 102.98173952 29.97469249 93.125 27.625 C92.31028229 27.43057312 91.49556458 27.23614624 90.65615845 27.03582764 C74.99781031 23.31875408 59.27126131 20.29040072 43.40966797 17.5859375 C40.38503002 17.06616584 37.36568233 16.52541428 34.34765625 15.96875 C33.54884033 15.82228027 32.75002441 15.67581055 31.92700195 15.52490234 C30.84938599 15.32695068 30.84938599 15.32695068 29.75 15.125 C25.73657005 14.38835779 22.07133979 13.95093734 18 14 Z " fill="#421312" transform="translate(362,106)"/>
<path d="M0 0 C13.09616923 0.58329273 26.00748005 2.11605893 39 3.8125 C40.04246887 3.94727753 41.08493774 4.08205505 42.15899658 4.22091675 C57.16413477 6.16371213 72.12992439 8.18248339 87 11 C87.98371582 11.18385254 88.96743164 11.36770508 89.98095703 11.55712891 C104.78109554 14.34650171 119.4163117 17.68089007 134.03808594 21.28125 C136.87751124 21.97027638 139.72161524 22.63174297 142.5703125 23.28125 C153.19690804 25.71146066 163.52956558 28.60678053 173.88623047 31.99707031 C177.71907451 33.23161033 181.5638821 34.42527927 185.41015625 35.6171875 C186.94908602 36.09544374 188.48798538 36.57379784 190.02685547 37.05224609 C192.32425365 37.76651991 194.62192894 38.47977839 196.92095947 39.18878174 C206.19515553 42.05181257 215.33206972 45.13986188 224.39453125 48.6184082 C228.02260095 50.00866053 231.66403531 51.35189439 235.3125 52.6875 C252.13511245 58.96167229 268.98078574 65.45619876 284.85888672 73.87646484 C287.362854 75.19040526 289.88575156 76.46405793 292.41015625 77.73828125 C318.50100599 90.99427457 343.21091115 107.10539393 364.7890625 126.97265625 C366.73982911 128.7614334 368.72980395 130.47843119 370.75 132.1875 C380.76090508 140.93942716 389.79242424 150.55139921 398 161 C398.88120223 162.0597202 399.76548215 163.11688648 400.65234375 164.171875 C415.20302308 181.63815851 427.15239185 201.06950082 438 221 C438.53173828 221.96389648 439.06347656 222.92779297 439.61132812 223.92089844 C451.58280714 245.69429092 451.58280714 245.69429092 454 258 C454.16935059 258.82886719 454.33870117 259.65773438 454.51318359 260.51171875 C458.06724754 278.05623631 459.12712654 294.69807607 458.8306427 312.55786514 C458.74526558 318.08909339 458.69984823 323.62071374 458.6484375 329.15234375 C458.58243442 336.15537511 458.50418721 343.15746908 458.37597656 350.15966797 C458.2727643 355.85463113 458.2141618 361.54854518 458.18504333 367.24435043 C458.16601227 369.40134783 458.13094425 371.55826979 458.07899475 373.71472549 C457.43887851 387.59850689 457.43887851 387.59850689 463.3371582 399.63208008 C464.86281379 401.11802136 466.41520453 402.57730194 468 404 C469.17911438 405.43601042 470.33476506 406.89215488 471.44921875 408.37890625 C472.24513428 409.40504028 472.24513428 409.40504028 473.05712891 410.4519043 C473.59515137 411.14840088 474.13317383 411.84489746 474.6875 412.5625 C475.89713464 414.12239643 477.10677008 415.68229225 478.31640625 417.2421875 C479.54434293 418.82806918 480.7722077 420.41400654 482 422 C484.37332374 425.06380358 486.74829063 428.12632204 489.125 431.1875 C489.70725342 431.93789551 490.28950684 432.68829102 490.8894043 433.46142578 C494.06731439 437.54762806 497.27863068 441.60264684 500.53540039 445.6262207 C511.66985783 459.39627233 522.49465119 473.4259614 531 489 C531.52932129 489.96800537 531.52932129 489.96800537 532.06933594 490.95556641 C537.1271489 500.33655071 541.14422094 509.70188764 544 520 C544.3196875 521.1240625 544.639375 522.248125 544.96875 523.40625 C549.48577256 542.64542017 548.815982 565.8618278 544 585 C543.82307617 585.70721191 543.64615234 586.41442383 543.46386719 587.14306641 C534.89416222 620.31922132 517.29990025 647.27640987 494 672 C493.31035156 672.7321875 492.62070312 673.464375 491.91015625 674.21875 C487.5727218 678.68923459 482.92726665 682.66034947 478.0625 686.546875 C475.97193711 688.22145854 473.91598697 689.90880231 471.875 691.640625 C453.01359356 707.45294502 431.35891974 719.91448331 410 732 C408.9805127 732.5784668 407.96102539 733.15693359 406.91064453 733.75292969 C399.63012547 737.87715436 392.32287429 741.95152491 385 746 C384.02627441 746.53979492 383.05254883 747.07958984 382.04931641 747.63574219 C375.07030034 751.49537622 368.05340503 755.27808074 361 759 C359.86498047 759.5995752 358.72996094 760.19915039 357.56054688 760.81689453 C330.53593789 775.02068304 302.73577742 786.76697306 273 794 C271.13408203 794.46599609 271.13408203 794.46599609 269.23046875 794.94140625 C261.68113706 796.68496411 254.01816249 797.87181188 246.375 799.125 C245.33730469 799.29604248 244.29960938 799.46708496 243.23046875 799.64331055 C241.70486328 799.88561401 241.70486328 799.88561401 240.1484375 800.1328125 C239.25302246 800.27605957 238.35760742 800.41930664 237.43505859 800.56689453 C228.39196343 801.70708293 219.39071922 802.1631858 210.28125 802.203125 C209.19748581 802.21022995 208.11372162 802.2173349 206.99711609 802.22465515 C149.81147743 802.51354749 93.39051554 796.73383111 39 778 C37.43113106 777.47483758 35.86211599 776.95011153 34.29296875 776.42578125 C-17.84115564 758.79717025 -67.8951231 733.42604262 -111 699 C-111.92941406 698.26394531 -112.85882813 697.52789063 -113.81640625 696.76953125 C-132.2660449 681.94158554 -150.07806888 665.19683992 -164 646 C-164.85491814 644.85115255 -165.71039429 643.70272016 -166.56640625 642.5546875 C-183.98823908 618.94813713 -197.59229396 591.87400417 -203.56640625 563.05419922 C-203.97364807 561.12484523 -204.42291533 559.20449785 -204.875 557.28515625 C-212.00395813 524.62218944 -208.36430998 489.49552106 -195 459 C-194.44659959 457.69456797 -193.89454642 456.38856411 -193.34375 455.08203125 C-190.52633291 448.45875729 -187.52569195 441.97110367 -184.25 435.5625 C-173.83920803 415.03997392 -165.55688762 393.70397982 -158 372 C-157.64341309 370.98099609 -157.28682617 369.96199219 -156.91943359 368.91210938 C-145.83139872 336.84276619 -138.43787517 303.44697643 -130.99023438 270.38232422 C-129.49928645 263.76957245 -127.96692609 257.16644077 -126.4375 250.5625 C-125.95684028 248.48051283 -125.47634793 246.398487 -124.99609375 244.31640625 C-124.6640625 242.87760417 -124.33203125 241.43880208 -124 240 C-120.40967774 243.45687665 -117.32779028 247.0128393 -114.3125 251 C-113.43369279 252.15632528 -112.55478366 253.3125731 -111.67578125 254.46875 C-111.0098999 255.34853516 -111.0098999 255.34853516 -110.33056641 256.24609375 C-108.23487301 259.00856372 -106.11703332 261.75387194 -104 264.5 C-101.41044375 267.86150235 -98.82566329 271.22641507 -96.25390625 274.6015625 C-95.80337891 275.19130859 -95.35285156 275.78105469 -94.88867188 276.38867188 C-94.02748918 277.51619974 -93.16801289 278.64503371 -92.31054688 279.77539062 C-90.34258274 282.34838175 -88.37189622 284.78826398 -86 287 C-86.28875 286.03964844 -86.5775 285.07929688 -86.875 284.08984375 C-92.06314823 265.49609311 -92.48608209 245.71288847 -83.8125 228.1875 C-77.90477714 217.81175144 -69.36527835 212.19478518 -58 209 C-55.24063012 208.75735602 -52.63216477 208.6201303 -49.875 208.625 C-48.71931519 208.62306641 -48.71931519 208.62306641 -47.5402832 208.62109375 C-38.85448564 208.77437765 -30.53571289 210.60935135 -22.11791992 212.6328125 C-19.57290951 213.07404543 -17.57552611 213.35896012 -15 213 C-12.99075567 211.07357672 -12.99075567 211.07357672 -11.36328125 208.3828125 C-10.7084375 207.3925708 -10.05359375 206.4023291 -9.37890625 205.38208008 C-8.69699219 204.30724365 -8.01507813 203.23240723 -7.3125 202.125 C-6.60351562 201.02889404 -5.89453125 199.93278809 -5.1640625 198.8034668 C-3.08077072 195.55259243 -1.0318773 192.28321323 1 189 C1.52416504 188.15356934 2.04833008 187.30713867 2.58837891 186.43505859 C29.08634919 142.93106623 23.76680266 96.75087842 12.27246094 48.97607422 C10.6096824 42.29135762 8.8244702 35.64213622 7 29 C6.76216797 28.12569336 6.52433594 27.25138672 6.27929688 26.35058594 C3.8101921 17.00892096 3.8101921 17.00892096 0.859375 7.81640625 C0.0045 5.01474772 -0.0670465 2.90098006 0 0 Z M32 28 C32.57017168 34.41614876 33.68083985 40.58068603 35.01904297 46.87939453 C39.93638995 70.09229832 43.34365838 93.11939856 43.4375 116.875 C43.44689606 117.97935394 43.44689606 117.97935394 43.45648193 119.10601807 C43.53935169 134.41201923 41.37639142 148.86186652 36 163.25 C35.61118652 164.30574219 35.22237305 165.36148438 34.82177734 166.44921875 C28.35222004 183.48324874 19.28181475 199.01341364 9 214 C8.46600586 214.78052734 7.93201172 215.56105469 7.38183594 216.36523438 C5.74305479 218.75013505 4.09372483 221.12718506 2.4375 223.5 C1.92453369 224.23702148 1.41156738 224.97404297 0.88305664 225.73339844 C0.40473389 226.40918945 -0.07358887 227.08498047 -0.56640625 227.78125 C-0.98865479 228.38001953 -1.41090332 228.97878906 -1.84594727 229.59570312 C-3 231 -3 231 -5 232 C-7.19705119 231.6092892 -9.37785973 231.12602565 -11.546875 230.6015625 C-12.19569641 230.44714691 -12.84451782 230.29273132 -13.51300049 230.13363647 C-15.59362871 229.63728398 -17.67183668 229.13156433 -19.75 228.625 C-21.81424596 228.12726593 -23.87894804 227.63152724 -25.94415283 227.13778687 C-27.82922793 226.68625428 -29.71299087 226.22925401 -31.59667969 225.77197266 C-40.87455255 223.66747954 -51.77961132 221.57861861 -60.35546875 226.7421875 C-65.45581599 230.64316568 -68.7607636 235.70546589 -70 242 C-70.23192907 246.67891686 -70.1774721 251.31999495 -70 256 C-68.23525461 253.35288191 -67.46001596 251.59643702 -66.5625 248.625 C-65.0739046 244.06293648 -63.81493045 240.32704592 -59.8203125 237.40625 C-43.0181808 229.0284558 -11.66262604 241.1983067 5.2590332 246.76660156 C44.68374171 260.05083755 82.5374034 279.27520253 113 308 C113.74765625 308.68320312 114.4953125 309.36640625 115.265625 310.0703125 C126.36021293 320.58301645 133.7732113 333.18757902 140 347 C140.38285156 347.83144531 140.76570313 348.66289062 141.16015625 349.51953125 C144.15359038 357.02400099 144.39435105 365.65861394 141.93359375 373.3203125 C137.09902617 383.83253302 130.62643463 388.78852974 120.02734375 392.95703125 C91.6496285 402.73361186 58.91333014 390.19909795 33.1965332 377.74267578 C23.99022167 373.15117894 15.38018565 367.95616501 7 362 C5.94039062 361.25234375 4.88078125 360.5046875 3.7890625 359.734375 C-13.26012537 347.29428516 -29.17306203 332.79988336 -42 316 C-42.42877441 315.44763672 -42.85754883 314.89527344 -43.29931641 314.32617188 C-53.59456616 301.01794552 -61.61178294 287.60134277 -66.80859375 271.546875 C-67.71366622 268.85242975 -68.62925876 266.47370977 -70 264 C-71.21080242 276.45781157 -67.21389337 289.27866853 -60.8203125 299.921875 C-59.66841033 302.84002717 -59.935673 304.02839901 -61 307 C-62.67894959 309.7408297 -64.58172928 312.29809179 -66.5 314.875 C-72.15729151 322.65760291 -77.19753537 330.66845152 -82 339 C-84.63506821 335.70212322 -86.60060588 332.19889296 -88.625 328.5 C-96.99585785 313.60591893 -96.99585785 313.60591893 -110 303 C-113.30419497 302.05384405 -113.30419497 302.05384405 -116 302 C-118.12733304 306.6933534 -119.67633418 311.15416434 -120.875 316.1875 C-121.04225586 316.87400635 -121.20951172 317.5605127 -121.38183594 318.26782227 C-122.11332154 321.27127533 -122.83014131 324.27802351 -123.53808594 327.28710938 C-126.9571727 341.7801367 -131.29958707 355.87405765 -136 370 C-136.30244629 370.92586914 -136.60489258 371.85173828 -136.91650391 372.80566406 C-146.17408608 401.09470866 -158.22304723 428.48211212 -171.05859375 455.30859375 C-176.23177154 466.1455093 -180.41739265 477.01128193 -183.25 488.6875 C-183.41330811 489.35185059 -183.57661621 490.01620117 -183.74487305 490.70068359 C-193.07276669 531.38163052 -180.24822316 572.9127825 -160 608 C-156.30608955 613.89080914 -152.22278718 619.48042671 -148 625 C-147.29230469 625.9384375 -146.58460938 626.876875 -145.85546875 627.84375 C-141.40922197 633.56682121 -136.53369687 638.87403765 -131.6015625 644.17578125 C-129.4474164 646.51429121 -127.36708563 648.88733842 -125.3125 651.3125 C-122.51868493 654.52802301 -119.5158532 657.29516132 -116.265625 660.04296875 C-113.62144043 662.32699715 -111.10328634 664.72652547 -108.5625 667.125 C-101.15676135 673.99460892 -93.124975 680.01413449 -85 686 C-84.32340332 686.50144531 -83.64680664 687.00289062 -82.94970703 687.51953125 C-61.21553959 703.54141204 -37.52861654 717.1093862 -13.25537109 728.89892578 C-10.76352606 730.11544679 -8.2826886 731.35318247 -5.80078125 732.58984375 C38.22716574 754.31892147 86.33893307 768.20237266 134.9375 774.75 C135.68552887 774.85105042 136.43355774 774.95210083 137.20425415 775.05621338 C142.46355239 775.75805164 147.72859626 776.39625993 153 777 C153.80970245 777.09462524 154.61940491 777.18925049 155.4536438 777.28674316 C168.50903328 778.78157111 181.42855295 779.31652366 194.56616211 779.26074219 C197.56449526 779.24999285 200.56223127 779.26073381 203.56054688 779.2734375 C220.43570337 779.28638837 236.97510395 777.8964727 253.625 775.125 C254.68291748 774.9492041 255.74083496 774.7734082 256.83081055 774.59228516 C259.88957205 774.07418119 262.94506994 773.54017879 266 773 C266.79583496 772.86400391 267.59166992 772.72800781 268.41162109 772.58789062 C310.88543166 765.13866678 351.1597941 741.89486178 388.16357422 720.61523438 C391.13846897 718.9211473 394.13046935 717.26141154 397.12890625 715.609375 C423.66406162 700.97795626 449.32535665 685.23199176 472 665 C472.55945313 664.50226074 473.11890625 664.00452148 473.6953125 663.49169922 C480.1980371 657.67606183 486.53511051 651.82492986 492 645 C492.75539063 644.0821875 493.51078125 643.164375 494.2890625 642.21875 C508.68260837 624.39346193 518.78311276 604.27652509 524 582 C524.18763916 581.23985596 524.37527832 580.47971191 524.56860352 579.6965332 C526.15124827 572.72852941 526.34710919 565.93998644 526.3125 558.8125 C526.30512817 557.02175049 526.30512817 557.02175049 526.29760742 555.19482422 C525.9337188 527.75948848 513.62351897 504.21139346 497 483 C496.14350823 481.89271764 495.28801842 480.78465944 494.43359375 479.67578125 C493.81278931 478.8705603 493.81278931 478.8705603 493.17944336 478.04907227 C492.76960205 477.51725342 492.35976074 476.98543457 491.9375 476.4375 C491.52959229 475.90890381 491.12168457 475.38030762 490.70141602 474.83569336 C485.95810039 468.67379849 481.34036962 462.45395629 477 456 C476.62520508 455.4519873 476.25041016 454.90397461 475.86425781 454.33935547 C471.17948719 447.32873889 467.9287911 440.11653186 465.2734375 432.11328125 C465.03811813 431.40612976 464.80279877 430.69897827 464.56034851 429.97039795 C463.37886127 426.38712578 462.2410259 422.79590987 461.15649414 419.18212891 C458.80025544 411.58802803 456.46457804 404.93837725 449 401 C445.86410343 400.21303798 443.26655032 400.05103985 440 400 C439.67 404.95 439.34 409.9 439 415 C437.25131425 402.5241985 436.71481222 390.41109892 436.79418945 377.82104492 C436.81270754 374.77839952 436.81469656 371.73605589 436.81445312 368.69335938 C436.81936104 366.73958071 436.82518615 364.78580409 436.83203125 362.83203125 C436.83314407 361.93200882 436.8342569 361.03198639 436.83540344 360.10469055 C436.86938155 355.60110342 437.25204185 351.44683929 438 347 C438.17952628 343.73012265 438.2107884 340.46178111 438.23828125 337.1875 C438.24802979 336.23335205 438.25777832 335.2792041 438.26782227 334.29614258 C438.65085595 286.99531236 431.51786238 252.86566039 405 213 C404.53207031 212.29262695 404.06414063 211.58525391 403.58203125 210.85644531 C395.2318018 198.29016863 386.25466146 186.31899083 376.02734375 175.2109375 C374.2385666 173.26017089 372.52156881 171.27019605 370.8125 169.25 C362.85515156 160.14797498 354.1771601 151.61856531 344.6875 144.12890625 C341.8531103 141.88364115 339.12002994 139.54091562 336.375 137.1875 C302.77477258 109.23763175 262.07880906 89.33844764 221 75 C219.60205672 74.48485669 218.20585285 73.96493331 216.8125 73.4375 C193.04125467 64.45540042 168.91584187 55.79806111 144.26318359 49.58544922 C141.38356115 48.84053718 138.5333029 48.00826853 135.6784668 47.17431641 C114.60722995 41.08172156 93.10382563 36.85871915 71.5 33.1875 C70.63672089 33.04056702 69.77344177 32.89363403 68.88400269 32.74224854 C50.54285848 29.20836544 50.54285848 29.20836544 32 28 Z " fill="#FDFDFD" transform="translate(330,78)"/>
<path d="M0 0 C41.68273201 3.35620518 85.17757676 11.73925558 124.81591797 25.27612305 C127.47172395 26.1563449 130.14418919 26.97265738 132.8203125 27.7890625 C140.70709568 30.20232711 148.55737927 32.72460971 156.40429688 35.26391602 C158.89095732 36.06765775 161.3790631 36.86681913 163.8671875 37.66601562 C165.47144524 38.1846142 167.0756151 38.70348468 168.6796875 39.22265625 C169.41210663 39.45710953 170.14452576 39.69156281 170.8991394 39.93312073 C175.38991479 41.39372215 179.67849027 43.09591582 184 45 C186.16257576 45.80277434 188.32965409 46.59347636 190.5 47.375 C249.11570973 69.08292583 308.27217037 101.37384936 347.8046875 151.25 C350.05154621 154.06457035 352.39580788 156.77489015 354.75 159.5 C393.08975197 205.543257 406.84043851 250.25073627 406.23828125 309.1875 C406.22692139 310.54041138 406.22692139 310.54041138 406.21533203 311.9206543 C406.16392366 315.35388239 406.0659469 318.60792559 405.49560547 321.9987793 C404.78890618 326.27831346 404.83738557 330.50159489 404.83203125 334.83203125 C404.82870285 335.78204514 404.82537445 336.73205902 404.82194519 337.71086121 C404.8168927 339.72219359 404.81453635 341.73353432 404.81469727 343.74487305 C404.81253452 346.76430877 404.79442702 349.78336436 404.77539062 352.80273438 C404.74283964 364.39124286 405.39075704 375.5190374 407 387 C407.33 382.05 407.66 377.1 408 372 C414.56081133 372.10251268 418.21715136 373.05306466 423.05517578 377.51391602 C426.68086523 382.14866314 428.11994454 387.72822985 429.78933716 393.29083252 C430.88507012 396.91981921 432.07656634 400.516598 433.2734375 404.11328125 C433.50533279 404.81221497 433.73722809 405.51114868 433.97615051 406.23126221 C436.66726526 414.19589196 440.3121225 421.06226855 445 428 C445.39010254 428.58265625 445.78020508 429.1653125 446.18212891 429.765625 C450.62083128 436.34412872 455.44269408 442.59997963 460.375 448.8125 C462.25967624 451.20089152 464.13405505 453.59694666 466 456 C466.48758789 456.62680664 466.97517578 457.25361328 467.47753906 457.89941406 C487.8550055 484.43658371 496.8880467 513.06179972 493.765625 546.51074219 C493.17436224 550.76822304 492.17148368 554.86951014 491 559 C490.7215625 560.07507813 490.443125 561.15015625 490.15625 562.2578125 C484.03532602 584.15594569 471.41720627 604.12843873 456.109375 620.703125 C454.22100188 622.75935351 452.42019417 624.86286408 450.625 627 C441.41402577 637.48795021 430.16166109 645.733864 419 654 C418.34322266 654.49226074 417.68644531 654.98452148 417.00976562 655.49169922 C389.81900437 675.78854401 358.77326971 691.45404052 328.94091797 707.42529297 C326.98792952 708.47101565 325.03641644 709.51949863 323.08642578 710.57080078 C273.54867017 737.23212278 223.40472233 751.17452966 167.0625 751.3125 C166.03542938 751.31511841 165.00835876 751.31773682 163.95016479 751.32043457 C136.47330626 751.32787518 109.42864267 748.49155145 82.421875 743.44824219 C80.15936993 743.02949629 77.89418121 742.63844262 75.625 742.2578125 C67.11499111 740.800207 58.88646044 738.69505255 50.6015625 736.3046875 C47.6077812 735.44335879 44.60899463 734.63489013 41.5859375 733.8828125 C-26.70397041 716.87922871 -94.50686393 681.63449965 -146.14453125 633.6328125 C-148.66303899 631.31068635 -151.22307741 629.05461464 -153.8125 626.8125 C-157.21482584 623.80040508 -160.21970203 620.63380925 -163.14453125 617.16015625 C-164.45635567 615.63291645 -165.81301799 614.14365956 -167.19921875 612.68359375 C-183.88314887 595.08621174 -196.32258688 574.12623908 -206 552 C-206.47179687 550.9378125 -206.94359375 549.875625 -207.4296875 548.78125 C-211.54141986 538.8722304 -213.7604657 528.45693579 -216 518 C-216.25007812 516.89140625 -216.50015625 515.7828125 -216.7578125 514.640625 C-223.28160079 480.64341843 -213.4432992 446.49993496 -198.16796875 416.37109375 C-193.99728977 408.13081615 -190.24627293 399.74413461 -186.625 391.25 C-186.1424324 390.1216423 -186.1424324 390.1216423 -185.65011597 388.9704895 C-173.73690389 361.03665624 -164.48835687 332.25071728 -156.53808594 302.95800781 C-155.6807383 299.83825823 -154.77544085 296.73253647 -153.875 293.625 C-152.10089122 287.4516784 -150.50927904 281.24292695 -149 275 C-146.19614477 274.18977914 -144.58052542 273.76966586 -141.82421875 274.86328125 C-129.21323412 283.41661817 -121.54624877 297.53579117 -115 311 C-111.69275545 307.06604016 -109.03137388 302.94069581 -106.375 298.5625 C-101.59257847 290.7817915 -96.40399168 283.35862697 -91 276 C-88.09709558 278.62990401 -86.09132052 281.68060131 -83.9375 284.9375 C-83.24527344 285.97777344 -82.55304688 287.01804687 -81.83984375 288.08984375 C-80.40361782 290.36158116 -79.13094945 292.56816569 -78 295 C-78.42667969 295.55042969 -78.85335937 296.10085938 -79.29296875 296.66796875 C-89.75768003 310.58495591 -98.54407824 325.7997781 -107 341 C-111.07772257 341.31968208 -112.95156535 340.74491498 -116.125 338.1875 C-116.78757812 337.66542969 -117.45015625 337.14335937 -118.1328125 336.60546875 C-121.40923167 333.78829662 -123.27692861 331.97256701 -124.4296875 327.71875 C-124.6654248 326.88134277 -124.90116211 326.04393555 -125.14404297 325.18115234 C-125.38525879 324.29637207 -125.62647461 323.4115918 -125.875 322.5 C-127.81250613 315.6802229 -129.92754957 309.25765274 -133.1171875 302.8984375 C-134 301 -134 301 -134 299 C-134.66 299 -135.32 299 -136 299 C-136.03230713 299.5681543 -136.06461426 300.13630859 -136.09790039 300.72167969 C-136.66715847 308.17027697 -138.40922113 315.07669937 -140.4375 322.25 C-140.78586914 323.49765137 -141.13423828 324.74530273 -141.49316406 326.03076172 C-147.59037775 347.61654524 -154.60714214 369.18137032 -163.5625 389.75 C-163.94857422 390.64332031 -164.33464844 391.53664063 -164.73242188 392.45703125 C-165.48320478 394.19393617 -166.23527217 395.93028656 -166.98876953 397.66601562 C-167.84140012 399.63394138 -168.68536725 401.60561739 -169.52734375 403.578125 C-173.26038681 412.25225157 -177.2546959 420.77583688 -181.37695312 429.27148438 C-183.86393888 434.44608031 -186.02152008 439.61253572 -188 445 C-188.77491592 446.61232507 -189.56522154 448.21739948 -190.375 449.8125 C-197.41731761 465.02817411 -199.23035848 481.31560335 -199.25 497.875 C-199.25250763 498.98465622 -199.25250763 498.98465622 -199.25506592 500.11672974 C-199.25655068 511.05750898 -198.58377751 521.33232452 -196 532 C-195.66083679 533.85310913 -195.32676071 535.70716376 -195 537.5625 C-194.3405585 541.19629741 -193.10573251 544.49247679 -191.78515625 547.92749023 C-191.07715 549.79635376 -190.42560288 551.68637103 -189.78125 553.578125 C-184.48279725 568.7627152 -176.77042968 583.20420885 -167 596 C-166.51273438 596.66515625 -166.02546875 597.3303125 -165.5234375 598.015625 C-157.02966806 609.55261665 -148.03713392 621.03738657 -137.02734375 630.28125 C-134.80657126 632.16398583 -132.69349299 634.1413438 -130.5625 636.125 C-118.94738827 646.58216348 -106.12936134 655.5657409 -93 664 C-92.23864746 664.49419434 -91.47729492 664.98838867 -90.69287109 665.49755859 C-82.39042051 670.8818954 -74.16120434 676.20789348 -65.203125 680.44921875 C-61.82197967 682.08618789 -58.52247006 683.84208915 -55.21289062 685.61791992 C-47.13907956 689.94374752 -39.01326446 693.90850705 -30.578125 697.4765625 C-27.43264802 698.81579397 -24.34173623 700.22996721 -21.25 701.6875 C-16.60756281 703.81673811 -11.88708619 705.46925667 -7.01953125 707.0078125 C-4.83267255 707.7263922 -2.66774358 708.51286639 -0.51953125 709.33984375 C5.60023625 711.65766314 11.87374012 713.51131447 18.125 715.4375 C19.96964844 716.01081055 19.96964844 716.01081055 21.8515625 716.59570312 C49.34042578 725.09934833 76.47182088 730.33523206 104.98876953 733.75720215 C106.74840054 733.96962665 108.50709992 734.18973955 110.265625 734.41113281 C138.03064745 737.81464903 167.24066078 737.34171367 195.0625 734.6875 C196.30128906 734.56995361 197.54007813 734.45240723 198.81640625 734.33129883 C206.71634773 733.47652778 214.2945753 731.91186312 222 730 C223.85991624 729.56961535 225.72056146 729.14236493 227.58203125 728.71875 C229.32561508 728.31290469 231.06910617 727.90666071 232.8125 727.5 C234.12637695 727.20029297 234.12637695 727.20029297 235.46679688 726.89453125 C240.19609162 725.78549574 244.69495031 724.47638096 249.21508789 722.69628906 C251.71122154 721.72255453 254.25840419 720.93230861 256.8125 720.125 C261.7512748 718.49532872 266.43583979 716.56298473 271.13671875 714.34375 C272.68206685 713.6185116 274.23116518 712.90017154 275.79833984 712.22338867 C280.70663813 710.10214218 285.49653624 707.77937105 290.265625 705.36328125 C290.9119136 705.03621185 291.55820221 704.70914246 292.22407532 704.37216187 C294.91802753 703.00688622 297.61077165 701.63934699 300.29980469 700.2644043 C302.28570439 699.25026199 304.27532758 698.24375908 306.265625 697.23828125 C308.02567871 696.341698 308.02567871 696.341698 309.82128906 695.42700195 C312.62014054 694.1705283 314.98015498 693.43226762 318 693 C318 692.34 318 691.68 318 691 C318.8971875 690.52691406 319.794375 690.05382812 320.71875 689.56640625 C333.71796693 682.68799165 346.53835107 675.5961349 359.01953125 667.8125 C361.64318045 666.21699118 364.28509054 664.74454016 367 663.3125 C382.17350668 655.13874239 396.49611861 645.69218868 410 635 C411.48886719 633.83017578 411.48886719 633.83017578 413.0078125 632.63671875 C419.95721564 627.06333703 426.51122306 621.09608439 433 615 C433.64710938 614.40703125 434.29421875 613.8140625 434.9609375 613.203125 C450.02127147 598.92055475 462.3309574 578.62923915 468.921875 559.1640625 C470 556 470 556 471.0078125 553.671875 C475.43993666 541.73654853 476.71354063 528.6153983 476 516 C475.95617187 514.88109375 475.91234375 513.7621875 475.8671875 512.609375 C475.27079055 501.66678746 472.83007129 491.81696308 468 482 C467.54109375 480.98679687 467.0821875 479.97359375 466.609375 478.9296875 C459.80129692 464.42121043 449.92338254 452.07597584 440.0324707 439.56005859 C434.86760925 432.96788315 430.3970501 426.1262536 426 419 C425.67 425.93 425.34 432.86 425 440 C417.51920216 438.93131459 413.83034314 437.49533812 409.125 431.75 C389.58146625 404.07185403 386.57584935 369.82441254 386.84967041 336.99544716 C386.87582559 333.825729 386.88838291 330.65618333 386.89794922 327.4863739 C386.92049738 320.76167038 386.95898155 314.03711292 387 307.3125 C387.04761066 299.49370939 387.08823915 291.67500302 387.11187744 283.85610008 C387.12461585 280.76888296 387.14961195 277.68193503 387.17529297 274.59480286 C387.25312447 259.69653102 387.03972622 244.39422726 382.5 230.0625 C382.24645752 229.24241455 381.99291504 228.4223291 381.73168945 227.57739258 C378.63612122 218.13360742 373.97529446 209.56729767 369 201 C368.59813477 200.30471191 368.19626953 199.60942383 367.78222656 198.89306641 C365.25680378 194.5513863 362.64575217 190.26928191 360 186 C359.195625 184.66195312 359.195625 184.66195312 358.375 183.296875 C338.3964293 150.60450397 338.3964293 150.60450397 310 126 C310 125.34 310 124.68 310 124 C309.4534375 123.76796875 308.906875 123.5359375 308.34375 123.296875 C305.34575612 121.63798505 303.061622 119.52849536 300.5 117.25 C278.84245171 98.55060177 253.60735034 85.3948671 228 73 C227.29278809 72.65678711 226.58557617 72.31357422 225.85693359 71.95996094 C219.62768103 68.95474776 213.38068295 66.27410229 206.828125 64.0546875 C204.56549391 63.21088861 202.46804022 62.28402364 200.2890625 61.2578125 C192.80503161 57.89310401 184.91449729 55.54671758 177.125 53 C173.96016612 51.96066676 170.79627774 50.91849092 167.6328125 49.875 C166.87190308 49.62468018 166.11099365 49.37436035 165.32702637 49.11645508 C161.20209415 47.75298659 157.11048406 46.33026594 153.0390625 44.8125 C147.85210253 42.89499866 142.59449187 41.40970655 137.25 40 C136.37601562 39.76539063 135.50203125 39.53078125 134.6015625 39.2890625 C132.75286323 38.79358978 130.90337991 38.3010355 129.05322266 37.81103516 C126.8952528 37.23780824 124.73881639 36.65879369 122.58349609 36.07568359 C112.79989843 33.43678107 102.98173952 30.97469249 93.125 28.625 C92.31028229 28.43057312 91.49556458 28.23614624 90.65615845 28.03582764 C73.8713932 24.05135837 57.00164439 20.8997506 40 18 C37.30833039 17.52826409 34.61754021 17.05186747 31.92700195 16.57373047 C29.96766957 16.22611761 28.00733105 15.88418737 26.046875 15.54296875 C23.35628432 15.06349169 20.67725552 14.54853544 18 14 C18.24234375 14.82757813 18.4846875 15.65515625 18.734375 16.5078125 C23.23851499 32.54948029 26.0053631 48.87000888 27.60546875 65.4453125 C27.88432563 68.75670036 27.88432563 68.75670036 28.5145874 70.94276428 C29.04251769 73.18019497 29.14073454 75.17284051 29.16113281 77.47045898 C29.17074036 78.34915146 29.1803479 79.22784393 29.19024658 80.13316345 C29.1966214 81.55031395 29.1966214 81.55031395 29.203125 82.99609375 C29.20882507 83.98062027 29.21452515 84.96514679 29.22039795 85.97950745 C29.22984226 88.06664967 29.23637967 90.15380677 29.24023438 92.2409668 C29.24986907 95.39464408 29.2808684 98.54764944 29.3125 101.70117188 C29.36802368 112.28242183 29.08301295 121.81235057 26 132 C25.71898437 133.26972656 25.43796875 134.53945312 25.1484375 135.84765625 C19.50467744 159.30631548 6.34910534 180.97550125 -7.52734375 200.45703125 C-10.18601573 204.20126566 -12.60468245 208.08358238 -15 212 C-18.12817473 211.051825 -21.25190119 210.08975035 -24.375 209.125 C-25.26445312 208.85558594 -26.15390625 208.58617187 -27.0703125 208.30859375 C-28.34648437 207.91220703 -28.34648437 207.91220703 -29.6484375 207.5078125 C-30.43395996 207.26691895 -31.21948242 207.02602539 -32.02880859 206.77783203 C-34 206 -34 206 -36 204 C-35.46632813 203.30777344 -34.93265625 202.61554688 -34.3828125 201.90234375 C-17.39695533 179.59738598 -3.33317429 155.87839325 5.8125 129.3125 C6.10294189 128.48169922 6.39338379 127.65089844 6.69262695 126.79492188 C10.78175445 114.46113785 11.41063309 102.00765474 11.375 89.125 C11.37368576 87.95315155 11.37368576 87.95315155 11.37234497 86.75762939 C11.28431849 62.68954392 7.41831487 39.40395791 2.28686523 15.95068359 C2.13585861 15.25555664 1.98485199 14.56042969 1.82926941 13.84423828 C1.41785001 11.96058517 0.99874657 10.07861502 0.57910156 8.19677734 C0.06673526 5.36839437 -0.12002824 2.86247131 0 0 Z " fill="#EF4529" transform="translate(362,106)"/>
<path d="M0 0 C38.68230199 13.29880039 75.81321356 32.29088445 105.74227905 60.55993652 C106.56341187 61.31661621 107.38454468 62.0732959 108.2305603 62.85290527 C119.6202115 73.71115751 127.31493099 86.30262967 133.74227905 100.55993652 C134.12513062 101.39138184 134.50798218 102.22282715 134.9024353 103.07946777 C137.89199939 110.57423542 138.11722458 119.1799017 135.71102905 126.84509277 C130.81922478 137.59347382 123.59176803 143.3445519 112.73446655 147.55212402 C84.2471807 157.14705842 51.74344721 144.8015805 25.93881226 132.3026123 C16.73250072 127.71111546 8.12246471 122.51610153 -0.25772095 116.55993652 C-1.31733032 115.81228027 -2.3769397 115.06462402 -3.46865845 114.29431152 C-20.86091867 101.60389593 -37.20415994 86.72208238 -50.25772095 69.55993652 C-50.68504517 69.00902344 -51.11236938 68.45811035 -51.55264282 67.89050293 C-62.7147751 53.46285323 -70.7605056 38.97856397 -76.25772095 21.55993652 C-77.24772095 22.05493652 -77.24772095 22.05493652 -78.25772095 22.55993652 C-78.25772095 15.95993652 -78.25772095 9.35993652 -78.25772095 2.55993652 C-77.59772095 3.87993652 -76.93772095 5.19993652 -76.25772095 6.55993652 C-76.0875647 5.9798584 -75.91740845 5.39978027 -75.74209595 4.80212402 C-73.93716471 -1.01589902 -72.14400222 -6.31869774 -67.04678345 -10.06506348 C-49.74369751 -18.59543638 -17.32902696 -5.839051 0 0 Z " fill="#FBC28D" transform="translate(337.2577209472656,324.4400634765625)"/>
<path d="M0 0 C13.26847846 10.0322642 22.30443183 24.58587208 24.875 41.0625 C27.03542504 60.02853904 22.9328061 77.02717909 10.9453125 92.1796875 C0.74832413 103.98144782 -14.14306278 112.93140694 -29.98608398 114.13037109 C-52.04552022 114.78921931 -67.58700947 110.87179384 -84.15234375 95.3828125 C-95.88825189 82.82438772 -101.99240731 65.5224559 -101.92944336 48.51074219 C-101.28909886 30.5008021 -92.20671568 15.13105432 -79.4375 2.9375 C-56.37413205 -16.41167526 -24.63089825 -16.61153603 0 0 Z " fill="#F59761" transform="translate(692.4375,437.0625)"/>
<path d="M0 0 C3.17311788 1.74845271 4.55233428 2.79474615 5.8125 6.1875 C6.38589931 14.78848958 5.48794929 22.81465499 4.1875 31.3125 C4.02185547 32.45912109 3.85621094 33.60574219 3.68554688 34.78710938 C-1.07311251 66.51749103 -14.59316488 97.98530289 -40.83642578 117.75512695 C-49.56464991 124.13509422 -59.92923796 131.53967725 -71 132 C-74.64800013 131.41369484 -78.14106967 130.46312271 -81.6875 129.4375 C-82.62400391 129.19708984 -83.56050781 128.95667969 -84.52539062 128.70898438 C-89.0794253 127.41851202 -91.44584942 126.6497227 -94.58203125 122.97265625 C-98.52083343 114.71527758 -98.76103431 103.46168079 -95.71875 94.78125 C-94.06191243 90.72476925 -92.04975931 86.86837974 -90 83 C-89.37718618 81.74498483 -88.75735683 80.48848385 -88.140625 79.23046875 C-74.5479521 52.05577272 -35.19874355 -4.04196098 0 0 Z " fill="#FABF8C" transform="translate(613,304)"/>
<path d="M0 0 C0.72445312 0.020625 1.44890625 0.04125 2.1953125 0.0625 C14.44439205 0.76495618 24.78521794 7.38465581 33 16.12890625 C42.77725198 27.90796629 45.31973978 40.94296884 44 56 C40.69827701 68.92226065 33.66322746 79.0756679 23 87 C11.8574914 93.53291161 -1.39260116 96.01562262 -14.109375 93.34765625 C-26.47444737 89.61571083 -36.56022536 82.86321532 -42.9453125 71.5546875 C-47.37187132 63.10951197 -49.17971103 56.61994356 -49.1875 47.1875 C-49.19974609 46.41857422 -49.21199219 45.64964844 -49.22460938 44.85742188 C-49.25420046 33.16894362 -44.85854054 22.31809185 -36.87109375 13.6875 C-26.41495712 4.25733085 -14.15908762 -1.1441687 0 0 Z " fill="#F59761" transform="translate(536,475)"/>
<path d="M0 0 C4.65118448 5.06158311 4.47506607 10.33733054 4.4375 16.875 C4.43621094 17.81359863 4.43492187 18.75219727 4.43359375 19.71923828 C4.27015029 32.31868622 2.67370057 44.82129631 1.125 57.3125 C-1.28883612 53.11141285 -0.73937762 49.76932872 -0.0625 45.125 C0.03788574 44.36123047 0.13827148 43.59746094 0.24169922 42.81054688 C0.52671498 40.64313366 0.82491831 38.47786826 1.125 36.3125 C2.89749209 24.09322466 2.89749209 24.09322466 0.125 12.3125 C-4.17270711 9.44736192 -7.8304042 9.72420894 -12.875 10.3125 C-16.1030976 11.27545793 -18.93070332 12.68858379 -21.875 14.3125 C-22.66648437 14.73660156 -23.45796875 15.16070312 -24.2734375 15.59765625 C-35.75689819 22.10012058 -45.20048083 31.25395609 -54.4375 40.5625 C-54.94212769 41.06928284 -55.44675537 41.57606567 -55.9666748 42.09820557 C-63.23796816 49.41934967 -70.08742418 56.72240601 -75.875 65.3125 C-76.29571777 65.910625 -76.71643555 66.50875 -77.14990234 67.125 C-86.53488087 80.47731079 -95.20109573 95.60078792 -99.875 111.3125 C-100.205 111.3125 -100.535 111.3125 -100.875 111.3125 C-100.95831896 109.83435988 -101.01520267 108.3547308 -101.0625 106.875 C-101.09730469 106.05128906 -101.13210938 105.22757812 -101.16796875 104.37890625 C-99.63254599 88.30814803 -88.45357193 69.95189379 -78.875 57.3125 C-78.47345703 56.77399414 -78.07191406 56.23548828 -77.65820312 55.68066406 C-64.98212322 38.7442776 -24.57221827 -14.42282377 0 0 Z " fill="#461715" transform="translate(615.875,294.6875)"/>
<path d="M0 0 C2.46928598 2.16917276 4.76336797 4.42279592 7.0390625 6.79296875 C7.73257813 7.44394531 8.42609375 8.09492188 9.140625 8.765625 C20.27493227 19.92142707 25.08323756 35.53718043 25.4140625 50.91796875 C25.36737282 69.2791932 18.73629878 86.14873624 5.74609375 99.23046875 C2.35989026 102.43587927 -1.04311517 105.26962555 -4.9609375 107.79296875 C-5.59 108.22609375 -6.2190625 108.65921875 -6.8671875 109.10546875 C-8.7109375 110.29296875 -8.7109375 110.29296875 -11.9609375 111.79296875 C-14.1640625 110.88671875 -14.1640625 110.88671875 -15.9609375 109.79296875 C-15.36667969 109.53644531 -14.77242187 109.27992188 -14.16015625 109.015625 C1.78921748 101.64865144 12.43771698 89.41830968 18.88671875 73.1796875 C24.11974258 57.79991917 23.25275064 40.46597253 16.515625 25.671875 C8.1281833 9.31858258 -3.32102357 -0.96098062 -20.703125 -7.20703125 C-38.32195215 -12.61520841 -55.66442883 -10.7607305 -71.9609375 -2.45703125 C-73.96963485 -1.38991079 -75.97320293 -0.3127086 -77.9609375 0.79296875 C-78.2909375 -0.19703125 -78.6209375 -1.18703125 -78.9609375 -2.20703125 C-76.01190676 -3.68472544 -73.05029182 -5.13535534 -70.0859375 -6.58203125 C-68.85230469 -7.20078125 -68.85230469 -7.20078125 -67.59375 -7.83203125 C-45.72022455 -18.42702014 -19.22105575 -14.32704024 0 0 Z " fill="#56231D" transform="translate(694.9609375,436.20703125)"/>
<path d="M0 0 C2 1 2 1 3 3 C3.39309578 6.09562931 3.62338668 8.04336605 3 11 C0.9375 13.5625 0.9375 13.5625 -2 15 C-5.625 15.0625 -5.625 15.0625 -9 14 C-11.177258 11.47157135 -11.87934122 9.7067157 -12.4375 6.4375 C-12 4 -12 4 -10.5 1.6875 C-6.76724733 -0.83210805 -4.4624693 -0.49582992 0 0 Z " fill="#F5B572" transform="translate(675,493)"/>
<path d="M0 0 C4.31473644 2.3970758 4.31473644 2.3970758 6 5 C6.97169421 9.55665696 6.8568819 13.47251487 4.5625 17.5625 C0.80915273 19.66803627 -2.70474924 20.33688241 -7 20 C-10.53724365 17.93660787 -11.70419522 16.88741435 -13 13 C-13.375 9.625 -13.375 9.625 -13 6 C-9.01674736 1.17816785 -6.28391573 -0.7250672 0 0 Z M-9.5625 4.5 C-11.39290393 7.68331118 -11.27675246 9.60819298 -10.6015625 13.15625 C-10.06429891 15.16214185 -10.06429891 15.16214185 -8.375 17.0625 C-4.91568392 18.42801951 -2.55940268 17.90602977 1 17 C3.08333333 16.08333333 3.08333333 16.08333333 4 14 C4.52776637 10.43943533 4.62903915 7.25807831 3 4 C-1.32462144 1.83768928 -5.5278123 2.13823159 -9.5625 4.5 Z " fill="#55251F" transform="translate(674,490)"/>
<path d="M0 0 C0.73283203 0.33515625 1.46566406 0.6703125 2.22070312 1.015625 C6.78175307 3.18716185 9.95910638 5.46668412 13.3125 9.25 C12.3225 9.58 11.3325 9.91 10.3125 10.25 C8.5078125 9.2109375 8.5078125 9.2109375 6.4375 7.625 C-2.66370216 1.28218488 -12.78209409 -1.43349154 -23.6875 -2.75 C-23.6875 -3.08 -23.6875 -3.41 -23.6875 -3.75 C-14.77045098 -5.42194669 -8.04828884 -3.91266231 0 0 Z " fill="#57231D" transform="translate(682.6875,428.75)"/>
<path d="M0 0 C5.8391366 0.85869656 9.32783918 5.74131349 13 10 C15.23791624 13.22182769 17.15108866 16.54359567 19 20 C19.66 21.11375 20.32 22.2275 21 23.375 C22 26 22 26 21.0625 28.1640625 C20.711875 28.76992188 20.36125 29.37578125 20 30 C19.55011719 28.98421875 19.10023438 27.9684375 18.63671875 26.921875 C14.56394919 18.08731327 10.10162162 11.14779597 3.22265625 4.2578125 C1 2 1 2 0 0 Z " fill="#56231C" transform="translate(694,438)"/>
<path d="M0 0 C11.81324278 2.23429542 11.81324278 2.23429542 17 4 C17.33 4.66 17.66 5.32 18 6 C17.01 6 16.02 6 15 6 C15 6.66 15 7.32 15 8 C13.62714844 7.7834375 13.62714844 7.7834375 12.2265625 7.5625 C11.03804688 7.376875 9.84953125 7.19125 8.625 7 C6.84996094 6.7215625 6.84996094 6.7215625 5.0390625 6.4375 C2.18179992 5.95250335 2.18179992 5.95250335 0 6 C0 4.02 0 2.04 0 0 Z " fill="#2197C4" transform="translate(371,857)"/>
<path d="M0 0 C0.33 0 0.66 0 1 0 C1.46485049 16.8723512 0.0754952 33.25988002 -2 50 C-4.41388659 45.79882499 -3.86416323 42.45687036 -3.1875 37.8125 C-3.08711426 37.04655518 -2.98672852 36.28061035 -2.88330078 35.49145508 C-2.59918916 33.32608249 -2.30174826 31.16297425 -2 29 C-1.1788415 22.90753371 -0.96823512 17.03854619 -1.03125 10.88671875 C-0.99114161 7.1817066 -0.5629184 3.65896961 0 0 Z " fill="#88543A" transform="translate(619,302)"/>
<path d="M0 0 C5.56818182 0.56818182 5.56818182 0.56818182 7 2 C7.1875 4.4375 7.1875 4.4375 7 7 C5 9 5 9 1.9375 9.1875 C-1 9 -1 9 -2 8 C-2.1875 5.0625 -2.1875 5.0625 -2 2 C-1.34 1.34 -0.68 0.68 0 0 Z " fill="#461615" transform="translate(517,525)"/>
<path d="M0 0 C1.32386705 3.97160115 0.30817171 5.57331589 -1.1875 9.4375 C-1.61417969 10.57058594 -2.04085937 11.70367188 -2.48046875 12.87109375 C-3.9769814 15.95260179 -5.43785983 17.76704272 -8 20 C-7.3316356 15.62221316 -5.77089558 11.77628147 -4 7.75 C-3.72671875 7.11320312 -3.4534375 6.47640625 -3.171875 5.8203125 C-1.14074248 1.14074248 -1.14074248 1.14074248 0 0 Z " fill="#511F1A" transform="translate(717,503)"/>
<path d="M0 0 C2.77474137 1.37198963 3.87056754 2.55894328 6 5 C5.875 8.8125 5.875 8.8125 5 12 C4.67 12 4.34 12 4 12 C3.690625 10.865625 3.38125 9.73125 3.0625 8.5625 C2.37075469 5.21224901 2.37075469 5.21224901 1 4 C-0.51469448 3.76807135 -2.03754562 3.58784762 -3.5625 3.4375 C-4.38878906 3.35371094 -5.21507812 3.26992188 -6.06640625 3.18359375 C-6.70449219 3.12300781 -7.34257813 3.06242187 -8 3 C-8 2.34 -8 1.68 -8 1 C-5.09704195 -0.45147903 -3.22738221 -0.37239025 0 0 Z " fill="#673629" transform="translate(674,490)"/>
<path d="M0 0 C0.33 0 0.66 0 1 0 C1.48309179 7.24637681 1.48309179 7.24637681 -0.5625 10.4375 C-3.68103694 12.43656214 -6.34186183 12.71860476 -10 13 C-10.33 12.34 -10.66 11.68 -11 11 C-9.3603125 10.62875 -9.3603125 10.62875 -7.6875 10.25 C-3.87478436 8.95755402 -2.79352034 8.48740066 -1 5 C-0.28566879 2.35065178 -0.28566879 2.35065178 0 0 Z " fill="#491917" transform="translate(679,497)"/>
<path d="M0 0 C0.33 0.474375 0.66 0.94875 1 1.4375 C-1.71317004 2.79408502 -3.14240265 1.84978778 -5.9140625 0.984375 C-9.54765722 0.03174717 -13.26572036 -0.24072534 -17 -0.5625 C-17 -0.8925 -17 -1.2225 -17 -1.5625 C-11.40127708 -2.61226055 -4.78827565 -3.74084035 0 0 Z " fill="#692F24" transform="translate(676,426.5625)"/>
<path d="M0 0 C3.62613199 0.56959153 5.25517741 1.92374534 7.75 4.5625 C8.36359375 5.20316406 8.9771875 5.84382813 9.609375 6.50390625 C10.06828125 6.99761719 10.5271875 7.49132812 11 8 C10.34 8.66 9.68 9.32 9 10 C7.49702124 8.52386015 5.99768715 7.04400843 4.5 5.5625 C3.6646875 4.73878906 2.829375 3.91507812 1.96875 3.06640625 C0 1 0 1 0 0 Z " fill="#4C1A18" transform="translate(694,438)"/>
<path d="M0 0 C0.33 0 0.66 0 1 0 C1.07654536 4.51617599 1.10228696 8.59085217 0 13 C-0.99 12.67 -1.98 12.34 -3 12 C-2.69230293 10.18667846 -2.37870936 8.37435655 -2.0625 6.5625 C-1.80146484 5.04849609 -1.80146484 5.04849609 -1.53515625 3.50390625 C-1 1 -1 1 0 0 Z " fill="#53231E" transform="translate(615,348)"/>
<path d="M0 0 C0.66 0 1.32 0 2 0 C2.66 3.3 3.32 6.6 4 10 C3.01 9.67 2.02 9.34 1 9 C0.67 6.03 0.34 3.06 0 0 Z " fill="#5F2E21" transform="translate(715,466)"/>
<path d="M0 0 C0.33 1.32 0.66 2.64 1 4 C1.66 4 2.32 4 3 4 C2.34 7.3 1.68 10.6 1 14 C0.67 14 0.34 14 0 14 C0 9.38 0 4.76 0 0 Z " fill="#5F312E" transform="translate(260,320)"/>
<path d="M0 0 C0 0.99 0 1.98 0 3 C-1.98 3.66 -3.96 4.32 -6 5 C-6.66 4.34 -7.32 3.68 -8 3 C-2.25 0 -2.25 0 0 0 Z " fill="#602A21" transform="translate(687,543)"/>
<path d="M0 0 C-1.28519565 2.86697492 -2.57129254 4.97607712 -5 7 C-5.66 7 -6.32 7 -7 7 C-3.86206897 0 -3.86206897 0 0 0 Z " fill="#491A17" transform="translate(704,530)"/>
<path d="M0 0 C1.875 0.25 1.875 0.25 4 1 C5.87380446 3.49840595 6.05001932 4.63319166 5.625 7.75 C5.41875 8.4925 5.2125 9.235 5 10 C4.67 10 4.34 10 4 10 C3.566875 8.3603125 3.566875 8.3603125 3.125 6.6875 C2.18106796 2.95986155 2.18106796 2.95986155 0 0 Z " fill="#592921" transform="translate(674,492)"/>
<path d="M0 0 C0.66 0.33 1.32 0.66 2 1 C1.67 1.99 1.34 2.98 1 4 C-0.98 4.33 -2.96 4.66 -5 5 C-5 4.34 -5 3.68 -5 3 C-2.625 1.3125 -2.625 1.3125 0 0 Z " fill="#E9CD71" transform="translate(562,438)"/>
<path d="M0 0 C1.65 0 3.3 0 5 0 C5.33 1.65 5.66 3.3 6 5 C3.98079663 3.69593116 1.98075027 2.36176581 0 1 C0 0.67 0 0.34 0 0 Z " fill="#279BC8" transform="translate(664,180)"/>
</svg>
